<?xml version="1.0" encoding="iso-8859-1"?>
<!-- Generator: Adobe Illustrator 19.0.0, SVG Export Plug-In . SVG Version: 6.00 Build 0)  -->
<svg version="1.1" id="Capa_1" xmlns="http://www.w3.org/2000/svg" xmlns:xlink="http://www.w3.org/1999/xlink" x="0px" y="0px"
	 viewBox="0 0 512 512" style="enable-background:new 0 0 512 512;" xml:space="preserve">
<path style="fill:#1DAFED;" d="M512,256c0,36.321-7.565,70.875-21.201,102.17c-1.369,3.135-2.79,6.228-4.274,9.289
	c-2.602,5.371-5.381,10.648-8.349,15.799c-0.794,1.4-1.609,2.779-2.435,4.159C431.01,462.043,349.341,512,256,512
	c-114.301,0-211.111-74.909-243.994-178.322c-0.219-0.658-0.428-1.317-0.627-1.975C3.981,307.785,0,282.352,0,256
	C0,114.615,114.615,0,256,0S512,114.615,512,256z"/>
<path style="fill:#010B10;" d="M367.47,309.439c-0.401-0.746-0.821-1.482-1.2-2.239c-1.783-3.578-3.548-7.165-5.858-10.448
	c-0.222-0.316-0.492-0.624-0.489-1.049c0.164-0.248,0.433-0.228,0.678-0.296c0.757-0.209,0.9-0.493,0.505-1.07
	c-0.555-0.811-1.149-1.596-1.744-2.378c-1.308-1.723-2.61-3.451-3.72-5.313c-0.706-1.184-1.341-2.403-1.729-3.737
	c-0.09-0.307-0.188-0.605-0.075-0.931c0.54,0.129,0.703,0.607,0.978,0.953c1.303,1.648,2.678,3.231,4.155,4.723
	c0.32,0.324,0.676,0.614,1.035,0.894c0.073,0.057,0.269,0.039,0.352-0.022c0.083-0.061,0.161-0.243,0.127-0.329
	c-0.214-0.545-0.424-1.098-0.699-1.614c-1.234-2.312-2.459-4.631-3.744-6.915c-2.704-4.807-4.736-9.934-7.155-14.874
	c-1.355-2.767-2.638-5.566-3.744-8.442c-0.919-2.389-1.702-4.82-1.989-7.381c-0.02-0.177-0.06-0.431,0.184-0.456
	c0.163-0.017,0.39,0.076,0.508,0.197c0.744,0.764,1.212,1.708,1.627,2.671c0.675,1.563,1.282,3.157,1.965,4.716
	c0.525,1.199,1.108,2.373,1.697,3.541c0.141,0.28,0.388,0.525,0.633,0.73c0.131,0.11,0.414,0.102,0.446-0.136
	c0.052-0.383,0.05-0.779,0.024-1.166c-0.4-5.842-1.488-11.565-3.02-17.207c-2.224-8.187-5.466-15.985-9.092-23.632
	c-1.375-2.901-2.812-5.773-4.181-8.677c-0.649-1.376-1.437-2.634-2.467-3.762c-0.546-0.599-1.477-1.252-0.961-2.149
	c0.436-0.755,1.43-0.327,2.189-0.321c0.256,0.002,0.513,0.025,0.751,0.038c0.304-0.42-0.026-0.626-0.209-0.841
	c-1.667-1.956-2.982-4.146-4.285-6.348c-1.034-1.748-2.06-3.503-3.134-5.226c-1.043-1.672-2.206-3.257-3.713-4.558
	c-0.195-0.168-0.37-0.374-0.506-0.594c-0.098-0.158-0.086-0.323,0.073-0.513c0.742-0.89,0.752-0.915,0.183-1.744
	c-1.416-2.058-3.043-3.941-4.805-5.709c-0.88-0.882-1.77-1.753-2.616-2.667c-0.622-0.671-1.211-1.379-1.553-2.298
	c0.204-0.075,0.373-0.173,0.553-0.196c0.319-0.041,0.533-0.216,0.339-0.486c-0.457-0.636-0.929-1.281-1.497-1.814
	c-1.289-1.21-2.626-2.373-3.972-3.52c-1.795-1.531-3.67-2.972-5.316-4.671c-0.538-0.555-1.117-1.084-1.541-2.008
	c1.075,0.219,1.811,0.753,2.586,1.182c0.745,0.412,1.479,0.845,2.216,1.269c0.189,0.11,0.377,0.325,0.604,0.13
	c0.259-0.223-0.015-0.385-0.114-0.56c-0.637-0.941-1.54-1.602-2.426-2.276c-2.513-1.911-5.191-3.561-8.016-4.964
	c-2.7-1.341-5.423-2.634-8.137-3.949c-2.538-1.23-5.041-2.527-7.411-4.063c-0.22-0.142-0.442-0.283-0.673-0.408
	c-0.446-0.241-0.69-0.135-0.852,0.362c-0.276,0.842-0.333,0.912-0.953,0.887c-0.39-0.016-0.789-0.052-1.162-0.156
	c-1.293-0.361-1.796-1.169-1.59-2.518c0.16-1.049,0.581-2.012,1.021-2.967c0.466-1.012,1.088-1.984,1.36-3.046
	c0.269-1.045,0.151-2.184,0.261-3.275c0.177-1.761,0.265-3.532,0.683-5.264c0.195-0.809,0.603-1.204,1.451-1.317
	c2.468-0.328,4.927-0.735,7.391-1.098c2.466-0.364,4.913-0.798,7.284-1.609c1.066-0.365,1.751-1.008,2.21-2.046
	c1.069-2.42,1.783-4.938,2.155-7.543c0.315-2.206,0.573-4.426,0.721-6.65c0.668-9.961,0.789-19.936,0.359-29.905
	c-0.347-8.062-0.963-16.112-1.939-24.127c-0.523-4.301-1.293-8.561-2.676-12.685c-0.606-1.807-1.325-3.566-2.292-5.213
	c-0.265-0.451-0.548-0.897-0.868-1.309c-0.347-0.444-0.763-0.512-1.201-0.18c-0.574,0.436-1.124,0.905-1.65,1.397
	c-1.828,1.709-3.457,3.605-4.883,5.652c-5.063,7.266-10.139,14.523-15.005,21.923c-2.754,4.188-4.913,8.663-6.697,13.333
	c-0.889,2.327-1.83,4.635-2.701,6.968c-1.38,3.7-3.156,7.2-5.172,10.59c-1.206,2.028-2.356,4.092-3.44,6.188
	c-0.6,1.159-1.041,2.404-1.497,3.631c-0.827,2.22-0.606,4.386,0.485,6.466c0.426,0.812,0.894,1.603,1.387,2.376
	c0.598,0.94,1.225,1.865,1.867,2.776c2.317,3.284,2.919,6.964,2.504,10.869c-0.118,1.107-0.337,2.203-0.528,3.301
	c-0.369,2.133-0.762,4.261-1.118,6.395c-0.079,0.478-0.178,0.89-0.663,1.113c-2.194,1.005-4.495,1.397-6.897,1.196
	c-0.393-0.032-0.54-0.327-0.562-0.683c-0.028-0.463,0.212-0.81,0.633-0.838c0.521-0.034,1.046-0.003,1.569-0.006
	c0.522-0.003,1.048,0.015,1.565-0.04c0.143-0.015,0.3-0.233,0.385-0.393c0.109-0.207-0.064-0.371-0.214-0.472
	c-0.675-0.46-1.449-0.604-2.244-0.587c-1.18,0.025-2.359,0.095-3.538,0.143c-0.72,0.029-1.441,0.061-2.161,0.073
	c-0.267,0.005-0.604-0.075-0.601-0.358c0.002-0.2,0.248-0.459,0.45-0.584c1.044-0.643,2.233-0.754,3.413-0.758
	c1.376-0.003,2.752,0.115,4.128,0.157c0.319,0.009,0.643-0.063,0.956-0.133c0.05-0.012,0.119-0.251,0.076-0.31
	c-0.107-0.148-0.256-0.29-0.419-0.37c-6.777-3.299-13.522-6.68-20.965-8.301c-2.375-0.517-4.771-0.859-7.196-1.035
	c-3.996-0.29-7.995-0.419-11.999-0.319c-7.882,0.196-15.706,0.985-23.472,2.349c-0.252,0.044-0.493,0.153-0.735,0.246
	c-0.048,0.019-0.106,0.113-0.097,0.162c0.018,0.109,0.044,0.251,0.12,0.308c0.554,0.413,1.27,0.26,1.873,0.513
	c0.235,0.098,0.332,0.481,0.146,0.649c-0.895,0.815-1.988,1.26-3.123,1.599c-1.514,0.452-3.081,0.625-4.649,0.774
	c-0.587,0.055-1.179,0.076-1.767,0.122c-2.936,0.229-5.642,1.088-8.059,2.826c-1.223,0.88-2.519,1.658-3.789,2.47
	c-0.757,0.484-1.509,0.987-2.389,1.167c-0.307-0.48-0.097-0.855,0.031-1.204c0.689-1.869,1.951-3.239,3.715-4.151
	c1.59-0.822,3.313-1.218,5.048-1.582c1.859-0.389,3.72-0.77,5.57-1.197c1.025-0.236,1.991-0.657,2.895-1.202
	c1.334-0.804,2.321-1.91,2.895-3.369c0.36-0.916,0.174-1.504-0.67-1.972c-0.578-0.321-1.211-0.49-1.867-0.58
	c-0.97-0.134-1.593-0.587-2.041-1.559c-1.156-2.509-2.753-4.766-4.408-6.974c-0.827-1.102-1.656-2.203-2.514-3.281
	c-2.414-3.034-4.628-6.2-6.539-9.58c-0.969-1.713-2.04-3.366-3.236-4.933c-2.162-2.833-4.802-4.999-8.267-6.06
	c-0.967-0.296-0.978-0.34-0.984-1.381c-0.024-3.978-0.806-7.819-2.056-11.575c-0.642-1.928-1.329-3.841-1.996-5.762
	c-0.537-1.55-1.067-3.1-1.316-4.731c-0.039-0.255-0.113-0.509-0.204-0.751c-0.143-0.378-0.72-0.475-0.969-0.164
	c-0.161,0.202-0.333,0.414-0.419,0.651c-0.156,0.431-0.283,0.876-0.366,1.326c-1.345,7.42-2.67,14.844-4.026,22.262
	c-0.366,1.999-0.819,3.982-1.236,5.972c-0.038,0.177-0.056,0.382-0.319,0.426c-0.368-0.144-0.319-0.513-0.354-0.815
	c-0.176-1.508-0.133-3.015,0.103-4.513c0.256-1.62,0.551-3.234,0.797-4.855c0.118-0.776,0.179-1.563,0.241-2.348
	c0.2-2.521-0.461-4.793-1.927-6.859c-1.061-1.494-2.154-2.982-2.5-4.84c-0.558,0.136-0.621,0.544-0.752,0.894
	c-0.745,1.988-1.024,4.063-1.101,6.17c-0.114,3.093,0.26,6.159,0.541,9.229c0.234,2.549,0.486,5.094,0.507,7.657
	c0.019,2.206-0.373,4.297-1.454,6.248c-0.379,0.683-0.651,1.43-0.931,2.164c-0.565,1.476-0.405,2.826,0.755,3.989
	c0.276,0.277,0.531,0.586,0.746,0.912c0.333,0.506,0.521,1.075,0.385,1.682c-0.244,1.086-0.515,2.167-0.804,3.242
	c-0.178,0.665-0.566,1.204-1.23,1.444c-1.418,0.514-1.923,1.603-2.171,3.002c-0.426,2.401-0.714,4.804-0.572,7.241
	c0.168,2.88,0.102,5.778,0.631,8.63c0.744,4.018,2.365,7.626,5.093,10.699c0.434,0.489,0.927,0.927,1.401,1.379
	c0.279,0.265,0.579,0.242,0.88,0.021c1.005-0.736,1.988-1.505,3.023-2.196c2.459-1.646,5.104-2.957,7.778-4.205
	c3.919-1.83,7.9-3.529,11.677-5.653c0.202-0.113,0.449-0.345,0.681-0.08c0.191,0.217,0.09,0.497,0.023,0.748
	c-0.247,0.926-0.815,1.632-1.537,2.232c-0.762,0.633-1.605,1.138-2.504,1.546c-1.312,0.597-2.631,1.178-3.954,1.751
	c-1.868,0.81-3.715,1.644-5.229,3.07c-0.555,0.523-1.195,0.503-1.456-0.118c-0.266-0.636-0.554-0.605-1.019-0.394
	c-1.025,0.465-1.905,1.147-2.773,1.851c-0.815,0.66-1.623,1.334-2.474,1.946c-0.857,0.613-1.802,1.079-2.847,1.287
	c-1.308,0.26-1.645,0.052-2.081-1.322c-0.133-0.418-0.347-0.493-0.716-0.375c-1.107,0.355-1.918,1.117-2.655,1.962
	c-0.646,0.742-1.237,1.531-1.871,2.283c-0.163,0.193-0.4,0.394-0.676,0.207c-0.145-0.098-0.259-0.281-0.328-0.449
	c-0.189-0.462,0.112-1.242-0.483-1.378c-0.736-0.167-0.84,0.675-1.115,1.145c-0.598,1.021-1.143,2.079-2.086,2.835
	c-0.351,0.281-0.767,0.495-1.18,0.682c-0.183,0.084-0.402-0.088-0.377-0.299c0.077-0.65,0.21-1.294,0.295-1.944
	c0.014-0.102-0.087-0.275-0.181-0.32c-0.096-0.047-0.303-0.026-0.368,0.047c-0.429,0.491-0.865,0.981-1.242,1.513
	c-4.332,6.108-8.211,12.495-11.635,19.155c-1.83,3.559-3.49,7.196-4.875,10.955c-0.3,0.814-0.539,1.512,0.088,2.383
	c0.639,0.89,0.408,2.033,0.133,3.055c-0.39,1.447-0.856,2.873-1.324,4.422c-0.721-0.21-0.523-1.125-1.218-1.295
	c-0.229,1.508-1.214,2.552-2.238,3.571c-0.604,0.602-1.211,1.203-1.79,1.829c-0.393,0.425-0.859,0.817-0.961,1.548
	c0.672,0.231,1.163,0.745,1.643,1.265c0.495,0.537,1.22,0.353,1.858,0.586c-0.029,0.214-0.04,0.395-0.08,0.569
	c-0.158,0.673-0.026,1.174,0.744,1.324c0.19,0.037,0.406,0.161,0.196,0.334c-0.87,0.717-0.133,0.741,0.356,0.897
	c0.374,0.119,0.748,0.244,1.111,0.395c0.2,0.083,0.298,0.299,0.178,0.473c-0.392,0.568-0.267,0.904,0.373,1.156
	c0.21,0.083,0.355,0.369,0.493,0.585c0.174,0.274-0.042,0.728-0.352,0.753c-0.326,0.026-0.655,0.04-0.982,0.025
	c-0.603-0.027-0.814-0.255-0.777-0.869c0.015-0.25,0.135-0.492,0.187-0.742c0.048-0.231-0.1-0.376-0.297-0.405
	c-0.836-0.124-1.676-0.226-2.529-0.336c-0.28-0.596,0.453-0.879,0.446-1.503c-1.472,0-2.902,0.015-4.331-0.005
	c-1.056-0.015-2.08-0.259-3.083-0.572c-0.163-0.051-0.366-0.236-0.398-0.391c-0.061-0.287,0.182-0.449,0.429-0.55
	c0.357-0.143,0.802-0.07,1.072-0.416c0.072-0.092,0.119-0.257,0.088-0.36c-0.031-0.101-0.174-0.233-0.274-0.237
	c-0.668-0.029-1.28,0.207-1.903,0.416c-0.618,0.207-1.253,0.364-1.887,0.514c-0.259,0.062-0.448-0.231-0.336-0.516
	c0.094-0.24,0.257-0.456,0.341-0.698c0.082-0.235-0.228-0.54-0.461-0.46c-0.368,0.126-0.752,0.242-1.08,0.443
	c-0.887,0.542-1.791,1.046-2.764,1.365c0.021,0.612,0.466,0.838,0.811,1.114c1.024,0.82,2.075,1.606,3.102,2.422
	c0.926,0.737,1.803,1.527,2.519,2.479c1.131,1.504,1.554,3.145,1.021,4.982c-0.455,0.033-0.576-0.279-0.72-0.556
	c-0.544-1.047-1.073-2.102-1.632-3.142c-0.56-1.041-1.174-2.05-1.947-2.952c-1.839-2.146-4.203-3.036-6.992-2.929
	c-0.96,0.037-1.616,0.497-1.994,1.346c-0.184,0.414-0.343,0.862-0.395,1.309c-0.214,1.839-0.087,3.647,0.546,5.319
	c0.533,0.312,0.848-0.009,1.165-0.187c0.693-0.388,1.418-0.659,2.19-0.847c0.679-0.165,1.336-0.124,1.901,0.234
	c1.019,0.647,2.077,1.079,3.304,1.024c0.122-0.005,0.25,0.074,0.374,0.116c0.324,0.109,0.459,0.531,0.257,0.79
	c-0.333,0.431-0.757,0.704-1.293,0.834c-0.97,0.234-1.946,0.251-2.933,0.172c-0.915-0.073-1.833-0.118-2.749-0.162
	c-1.663-0.078-2.826,0.535-3.616,2.121c-1.592,3.197-2.699,6.544-3.459,10.014c-1.356,6.199-1.738,12.469-1.16,18.786
	c0.324,3.54,1.043,7.004,2.397,10.312c0.098,0.24,0.173,0.49,0.249,0.738c0.016,0.052-0.016,0.119-0.027,0.188
	c-0.406,0.3-0.723-0.089-1.058-0.182c-2.295-0.637-4.403-0.119-6.438,0.953c-0.138,0.072-0.209,0.169-0.152,0.319
	c0.041,0.109,0.109,0.21,0.182,0.3c0.037,0.045,0.116,0.054,0.171,0.087c0.335,0.191,0.881-0.057,1.057,0.335
	c0.241,0.536-0.322,0.807-0.611,1.113c-0.767,0.809-1.601,1.553-2.379,2.351c-0.687,0.703-1.382,1.406-1.986,2.179
	c-0.784,1.002-1.295,2.148-1.163,3.46c0.056,0.566-0.146,0.856-0.637,1.039c-1.055,0.393-1.979,1.017-2.882,1.675
	c-0.212,0.155-0.426,0.31-0.657,0.433c-1.065,0.561-2.055,1.387-3.399,0.99c0.265-1.254,1.193-2.043,2.148-2.689
	c1.815-1.228,3.044-2.752,3.562-4.937c0.381-1.609,1.273-3,2.672-4.018c0.757-0.55,0.742-0.89,0.114-1.573
	c-0.163-0.178-0.476-0.226-0.445-0.657c0.754-0.878,1.86-1.285,2.98-1.642c1.186-0.377,2.403-0.655,3.583-1.05
	c2.428-0.815,2.469-0.901,1.818-3.326c-0.579-2.152-1.264-4.279-1.56-6.498c-0.08-0.606-0.44-0.899-0.971-1.103
	c-0.889-0.344-1.815-0.201-2.725-0.271c-0.177-0.014-0.418-0.074-0.502-0.199c-0.155-0.23-0.059-0.501,0.091-0.731
	c0.391-0.606,1.048-0.753,1.668-0.955c0.559-0.182,1.137-0.308,1.689-0.508c0.396-0.143,0.643-0.483,0.646-0.904
	c0.015-1.574,0.011-3.147-0.015-4.721c-0.006-0.377-0.301-0.546-0.665-0.576c-1.332-0.108-2.616,0.184-3.876,0.543
	c-1.195,0.342-2.354,0.809-3.539,1.187c-0.935,0.298-1.876,0.602-2.836,0.797c-1.294,0.263-2.594,0.288-3.806-0.331
	c-0.09-0.51,0.253-0.762,0.521-1.032c1.133-1.139,2.506-1.91,4.006-2.422c1.673-0.571,3.371-1.069,5.072-1.55
	c1.767-0.501,3.536-0.984,5.217-1.735c0.299-0.133,0.589-0.288,0.876-0.448c1.293-0.721,1.534-1.618,0.806-2.893
	c-0.374-0.655-0.948-1.085-1.596-1.416c-0.642-0.327-1.306-0.609-1.967-0.898c-0.669-0.292-1.296-0.644-1.772-1.208
	c-0.296-0.35-0.652-0.743-0.522-1.216c0.17-0.621,0.763-0.349,1.172-0.362c1.18-0.036,2.363-0.041,3.543-0.004
	c0.715,0.023,1.247-0.244,1.742-0.732c1.356-1.337,2.142-2.959,2.506-4.809c0.319-1.619,0.353-3.259,0.388-4.9
	c0.023-1.117,0.114-2.223,0.298-3.328c0.389-2.345,1.626-4.118,3.545-5.448c1.357-0.94,2.846-1.636,4.418-2.118
	c2.254-0.691,4.53-1.312,6.797-1.959c1.638-0.467,3.281-0.925,4.846-1.608c0.539-0.236,1.062-0.514,1.582-0.79
	c1.275-0.677,2.021-1.61,2.324-3.147c2.413-12.236,7.7-23.217,14.827-33.371c3.131-4.461,6.498-8.738,9.959-12.944
	c0.166-0.202,0.342-0.397,0.527-0.582c0.232-0.232,0.704-0.137,0.792,0.182c0.135,0.492,0.222,0.998,0.325,1.476
	c0.403,0.242,0.643-0.039,0.904-0.203c0.389-0.243,0.781-0.483,1.153-0.75c0.576-0.413,1.59-0.433,1.718-1.161
	c0.111-0.632-0.308-1.366-0.523-2.045c-1.056-3.333-1.589-6.765-1.879-10.236c-0.334-3.996-0.321-7.996-0.069-11.996
	c0.075-1.189,0.25-2.346,0.653-3.465c0.202-0.558,0.339-1.093,0.238-1.718c-0.353-2.207,0.133-4.309,0.985-6.332
	c0.362-0.857,0.6-1.703,0.614-2.65c0.021-1.459,0.446-2.856,1.045-4.174c0.589-1.297,0.738-2.623,0.661-4.023
	c-0.186-3.406-0.338-6.815-0.475-10.224c-0.171-4.263-0.308-8.526,0.231-12.777c0.24-1.891,0.625-3.748,1.197-5.569
	c0.456-1.449,1.544-1.359,2.336-0.414c0.553,0.659,0.908,1.441,1.23,2.233c0.518,1.276,1.01,2.561,1.527,3.838
	c0.37,0.915,0.81,1.794,1.44,2.563c0.207,0.253,0.416,0.513,0.854,0.52c0.77-0.903,1.02-2.071,1.227-3.212
	c0.34-1.869,0.55-3.763,0.813-5.647c0.145-1.04,0.251-2.086,0.443-3.116c0.132-0.704,0.344-1.4,0.59-2.074
	c0.232-0.633,0.67-1.119,1.314-1.392c0.446-0.189,0.956-0.041,1.189,0.38c0.094,0.17,0.159,0.359,0.225,0.544
	c1.046,2.904,2.373,5.686,3.624,8.502c0.373,0.839,0.699,1.698,1.057,2.542c1.089,2.565,1.789,5.212,1.642,8.026
	c-0.162,3.091,1.228,5.439,3.522,7.325c0.959,0.788,2,1.486,3.045,2.161c0.725,0.469,1.402,0.971,1.93,1.654
	c1.356,1.759,2.777,3.444,3.595,5.587c0.965,2.526,2.563,4.72,4.249,6.825c1.272,1.587,2.588,3.138,3.887,4.703
	c2.226,2.683,4.323,5.451,5.701,8.688c0.225,0.529,0.582,0.841,1.121,1.002c0.815,0.243,1.632,0.487,2.431,0.778
	c1.336,0.486,2.466,1.239,3.024,2.623c0.175,0.434,0.455,0.621,0.907,0.54c3.033-0.537,6.066-1.076,9.098-1.621
	c0.257-0.046,0.503-0.154,0.759-0.209c0.474-0.102,0.884-0.263,0.934-0.837c0.057-0.647-0.254-1.156-0.846-1.394
	c-0.569-0.229-1.164-0.149-1.75-0.149c-0.917,0-1.835,0.023-2.752,0.017c-0.285-0.002-0.285-0.031-0.938-0.662
	c1.938-0.85,3.853-1.689,5.766-2.528c0.238-0.104,0.485-0.197,0.704-0.333c0.092-0.057,0.185-0.222,0.168-0.319
	c-0.018-0.108-0.143-0.226-0.252-0.286c-0.764-0.424-1.636-0.424-2.462-0.611c-0.535-0.121-0.982-0.331-1.209-0.882
	c-0.142-0.345-0.001-0.729,0.346-0.749c1.047-0.057,2.096-0.08,3.143-0.137c0.409-0.022,0.513-0.33,0.536-0.68
	c0.032-0.503-0.134-0.716-0.635-0.794c-1.554-0.245-3.111-0.468-4.66-0.735c-0.641-0.11-1.266-0.308-1.907-0.468
	c0.09-0.499,0.546-0.526,0.796-0.775c0.351-0.35,0.375-0.653,0.045-1.01c-0.576-0.623-1.326-1.083-1.73-1.865
	c-0.091-0.176-0.157-0.366,0.016-0.51c0.087-0.073,0.247-0.11,0.362-0.09c1.052,0.174,1.97,0.696,2.9,1.176
	c1.169,0.602,2.346,1.176,3.664,1.369c0.258,0.038,0.518,0.067,0.778,0.074c0.307,0.007,0.604-0.334,0.589-0.656
	c-0.026-0.538-0.181-1.041-0.524-1.457c-0.333-0.403-0.686-0.794-1.069-1.149c-0.48-0.446-0.982-0.872-1.504-1.27
	c-2.7-2.055-3.278-4.776-2.448-7.905c0.285-1.073,0.619-2.159,1.113-3.146c2.33-4.652,3.936-9.571,5.549-14.497
	c1.388-4.237,2.835-8.457,4.59-12.56c2.83-6.612,6.405-12.776,11.154-18.215c1.427-1.634,2.99-3.132,4.687-4.485
	c0.411-0.327,0.819-0.659,1.251-0.956c1.541-1.063,2.377-0.913,3.467,0.603c0.698,0.972,1.14,2.065,1.476,3.201
	c0.674,2.275,1.021,4.611,1.199,6.968c0.256,3.402,0.48,6.806,0.685,10.212c0.491,8.121,0.974,16.243,1.44,24.366
	c0.226,3.939,0.176,7.87-0.528,11.771c-0.246,1.36-0.619,2.682-1.146,3.96c-1.323,3.205-3.581,5.443-6.855,6.627
	c-0.492,0.178-1.024,0.271-1.485,0.506c-0.34,0.172-1.132-0.037-0.934,0.616c0.136,0.449,0.805,0.276,1.249,0.174
	c0.638-0.145,1.266-0.343,1.907-0.479c0.967-0.206,1.941-0.33,2.922-0.069c0.232,0.062,0.338,0.427,0.216,0.649
	c-0.314,0.573-0.821,0.819-1.444,0.88c-0.515,0.051-1.03,0.099-1.544,0.16c-0.018,0.002-0.03,0.122-0.029,0.186
	c0.001,0.057,0.006,0.148,0.04,0.165c0.167,0.084,0.344,0.204,0.518,0.208c0.655,0.014,1.311-0.033,1.967-0.019
	c0.476,0.01,0.748,0.288,0.776,0.712c0.026,0.389-0.272,0.692-0.764,0.647c-1.748-0.16-3.356,0.498-5.021,0.819
	c-0.096,0.019-0.213,0.144-0.242,0.243c-0.07,0.237,0.119,0.378,0.301,0.393c0.52,0.043,1.045,0.056,1.567,0.048
	c0.59-0.009,1.179-0.064,1.769-0.08c0.255-0.007,0.554-0.021,0.679,0.263c0.158,0.356-0.045,0.641-0.3,0.855
	c-0.476,0.399-1.053,0.51-1.659,0.491c-0.853-0.027-1.707-0.113-2.557-0.073c-0.792,0.038-1.75-0.324-2.241,0.708
	c0.564,0.862,1.484,0.712,2.307,0.776c0.518,0.041,1.046-0.059,1.569-0.078c0.983-0.039,1.965-0.072,2.95-0.094
	c0.255-0.005,0.552,0.007,0.596,0.345c0.037,0.276-0.131,0.491-0.33,0.671c-0.58,0.52-1.299,0.608-2.026,0.606
	c-1.377-0.005-2.754-0.054-4.132-0.073c-0.655-0.008-1.305-0.002-1.926,0.294c-0.533,0.255-0.606,0.633-0.17,1.05
	c0.65,0.621,1.439,0.906,2.312,0.952c0.522,0.028,1.066,0.055,1.569-0.053c1.789-0.389,3.525-0.039,5.264,0.293
	c5.039,0.96,9.876,2.603,14.691,4.327c3.393,1.215,6.765,2.489,10.232,3.486c0.367,0.106,0.725,0.358,1.108,0.066
	c0.236-0.181,0.024-0.742-0.426-1.17c-0.581-0.552-1.286-0.907-1.997-1.242c-1.007-0.475-2.044-0.888-3.055-1.355
	c-0.413-0.191-0.797-0.445-1.178-0.696c-0.071-0.047-0.075-0.218-0.078-0.333c-0.001-0.042,0.086-0.115,0.141-0.124
	c0.382-0.068,0.774-0.202,1.148-0.165c0.781,0.076,1.553,0.24,2.327,0.376c0.581,0.102,1.157,0.236,1.74,0.31
	c0.152,0.019,0.412-0.028,0.413-0.305c0.001-0.122,0.021-0.286-0.046-0.359c-0.309-0.332-0.604-0.706-0.98-0.942
	c-0.941-0.591-1.911-1.143-2.895-1.662c-0.984-0.519-2.014-0.956-2.998-1.475c-0.751-0.397-1.527-0.792-2.178-1.327
	c-0.662-0.543-1.63-0.899-1.641-1.999c0.858-0.251,1.679,0.004,2.485,0.231c1.08,0.304,2.029,0.906,3.001,1.453
	c0.855,0.482,1.728,0.934,2.611,1.36c0.341,0.164,0.828,0.41,1.093,0.071c0.349-0.444-0.13-0.832-0.377-1.18
	c-0.539-0.758-1.267-1.322-2.022-1.852c-0.751-0.528-1.514-1.041-2.24-1.602c-0.786-0.607-1.457-1.327-1.832-2.271
	c-0.038-0.095-0.015-0.269,0.051-0.335c0.077-0.079,0.242-0.131,0.353-0.11c1.119,0.211,2.077,0.772,2.995,1.414
	c1.138,0.796,2.059,1.823,3.009,2.823c0.723,0.761,1.453,1.514,2.2,2.252c0.253,0.25,0.62,0.107,0.763-0.239
	c0.396-0.955,0.364-1.909,0.065-2.885c-0.313-1.022-0.874-1.905-1.483-2.761c-0.723-1.015-1.463-2.019-2.211-3.016
	c-1.745-2.327-2.046-4.903-1.357-7.661c0.367-1.47,0.876-2.89,1.555-4.24c0.707-1.405,1.464-2.786,2.226-4.163
	c0.413-0.746,0.851-1.481,1.326-2.187c3.123-4.649,5.598-9.632,7.652-14.829c0.843-2.134,1.637-4.286,2.41-6.446
	c0.863-2.415,1.904-4.741,3.194-6.961c5.618-9.661,11.894-18.862,19.104-27.413c1.608-1.907,3.275-3.762,5.049-5.516
	c1.622-1.604,2.073-1.59,3.688,0.065c1.253,1.284,2.18,2.78,2.902,4.416c1.231,2.787,1.839,5.735,2.283,8.727
	c0.569,3.834,0.746,7.704,1.065,11.561c0.492,5.95,0.993,11.899,1.454,17.851c0.717,9.232,1.063,18.476,0.551,27.731
	c-0.312,5.642-1.015,11.237-2.675,16.67c-0.537,1.759-1.218,3.46-1.985,5.132c-0.36,0.787-0.913,1.236-1.726,1.447
	c-1.398,0.362-2.806,0.659-4.241,0.831c-2.019,0.241-4.035,0.493-6.048,0.778c-1.496,0.212-2.962,0.566-4.337,1.218
	c-0.446,0.211-0.462,0.604-0.097,0.899c0.649,0.525,1.413,0.657,2.205,0.721c1.842,0.147,3.67-0.069,5.499-0.224
	c0.457-0.039,0.913-0.112,1.37-0.118c0.383-0.005,0.866,0.019,0.934,0.483c0.051,0.349-0.336,0.533-0.662,0.614
	c-0.569,0.143-1.141,0.306-1.722,0.372c-2.345,0.269-4.695,0.498-7.042,0.754c-0.437,0.048-0.935,0.006-1.163,0.573
	c0.925,0.703,2.046,0.838,3.139,0.99c2.143,0.297,4.297,0.516,6.443,0.794c1.369,0.178,2.712,0.482,3.946,1.136
	c0.156,0.083,0.355,0.242,0.376,0.39c0.049,0.343-0.274,0.38-0.516,0.452c-2.128,0.631-4.285,0.468-6.442,0.211
	c-1.953-0.232-3.888-0.622-5.862-0.662c-0.648-0.014-1.309-0.15-2.151,0.209c1.73,0.38,3.32,0.577,4.804,1.153
	c1.515,0.588,3.02,1.203,4.542,1.811c-0.112,0.552-0.494,0.481-0.751,0.511c-1.187,0.14-2.35-0.047-3.511-0.294
	c-1.409-0.299-2.804-0.694-4.26-0.714c-0.18-0.002-0.377,0.022-0.453,0.255c-0.075,0.228,0.047,0.394,0.18,0.523
	c0.669,0.65,1.467,1.103,2.341,1.411c1.112,0.391,2.235,0.748,3.35,1.127c1.054,0.358,2.123,0.691,3.076,1.284
	c0.141,0.088,0.287,0.323,0.271,0.47c-0.019,0.161-0.202,0.332-0.355,0.442c-0.334,0.239-0.736,0.271-1.132,0.241
	c-0.457-0.032-0.911-0.109-1.368-0.133c-0.084-0.004-0.226,0.141-0.251,0.239c-0.026,0.105,0.017,0.293,0.095,0.347
	c0.432,0.295,0.871,0.581,1.33,0.831c2.36,1.286,4.732,2.551,7.089,3.843c2.357,1.294,4.675,2.655,6.909,4.156
	c2.183,1.467,4.251,3.076,6.157,4.891c0.572,0.544,1.141,1.097,1.423,1.859c0.581,1.567,1.574,2.871,2.647,4.116
	c1.63,1.89,3.141,3.86,4.493,5.966c1.167,1.819,2.517,3.521,3.775,5.283c1.144,1.602,2.25,3.227,3.111,5.007
	c0.635,1.313,1.665,2.349,2.567,3.473c0.24,0.299,0.67,0.591,0.521,0.997c-0.36,0.988,0.263,1.627,0.719,2.318
	c1.88,2.845,3.705,5.726,5.784,8.439c1.28,1.671,2.369,3.467,3.066,5.472c0.215,0.621,0.023,0.776-0.656,0.739
	c-0.544-0.03-1.212-0.654-1.592-0.034c-0.255,0.416,0.317,0.947,0.578,1.39c2.366,4.021,4.39,8.212,6.225,12.494
	c3.048,7.111,6.128,14.21,8.756,21.491c1.629,4.512,2.915,9.115,3.495,13.898c0.23,1.9,0.171,3.798,0.182,5.7
	c0.008,1.575-0.01,3.149,0.026,4.723c0.057,2.46,0.657,4.797,1.675,7.033c0.843,1.854,1.841,3.626,2.908,5.357
	c2.312,3.753,4.234,7.697,5.823,11.804c0.354,0.916,0.706,1.839,0.973,2.784c0.23,0.816,0.504,1.704,0.111,2.507
	c-0.365,0.745-0.05,1.212,0.328,1.768c0.662,0.975,1.301,1.968,1.902,2.981c0.292,0.492,0.15,0.725-0.449,1.022
	c-0.821,0.406-0.936,0.575-0.572,1.3c0.586,1.165,1.028,2.412,1.867,3.437C367.674,306.243,367.65,307.841,367.47,309.439z
	 M278.301,145.26c-0.202-0.157-0.437-0.269-0.634-0.06c-0.061,0.064,0.064,0.302,0.104,0.461c0.037,0.05,0.068,0.104,0.11,0.148
	c0.288,0.295,0.548,0.688,1.048,0.499C279.245,146.19,279.049,145.85,278.301,145.26z M72.569,233.664
	c-2.211,0.189-4.238,1.015-6.401,1.767c0.744,0.296,1.276-0.095,1.811-0.246c1.544-0.433,3.155-0.7,4.562-1.548
	c0.049-0.027,0.098-0.078,0.146-0.077c0.179,0.004,0.233-0.068,0.134-0.088C72.752,233.46,72.654,233.596,72.569,233.664z
	 M201.524,124.55c3.922,0.295,7.72,0.193,11.522,0.064c0.994-0.034,1.517-0.438,1.974-1.271c1.497-2.732,2.091-5.64,1.848-8.723
	c-0.053-0.678,0.137-1.132,0.716-1.461c0.569-0.324,1.113-0.695,1.691-1.003c1.329-0.709,2.674-1.392,4.009-2.09
	c1.459-0.762,2.803-1.683,4.052-2.764c1.339-1.158,2.009-2.536,1.812-4.332c-0.115-1.041-0.167-2.094-0.171-3.142
	c-0.038-9.054-0.289-18.101-0.804-27.141c-0.388-6.813-0.991-13.605-1.737-20.385c-0.165-1.498-0.411-2.987-0.609-4.483
	c-0.07-0.53-0.194-1.032-0.556-1.444c-0.28-0.319-0.592-0.47-1.034-0.27c-0.795,0.36-1.42,0.935-2.03,1.531
	c-3.119,3.041-5.7,6.506-8.013,10.18c-4.14,6.577-7.415,13.579-10.011,20.886c-2.04,5.742-3.877,11.554-6.153,17.213
	c-0.562,1.398-0.928,2.862-1.17,4.36c-0.29,1.794,0.113,3.396,1.219,4.804c0.647,0.823,1.393,1.567,2.079,2.359
	c0.601,0.693,1.24,1.362,1.758,2.113c0.909,1.32,1.174,2.785,0.546,4.299c-0.571,1.375-0.791,2.748-0.445,4.22
	c0.204,0.867-0.186,1.504-0.963,1.956c-0.415,0.241-1.006,0.31-1.149,0.905C201.616,122.471,201.616,122.471,201.524,124.55z
	 M132.445,115.315c0,0.124,0,0.32,0,0.514c-0.001,0.474,0.068,0.949,0.553,1.153c0.476,0.2,0.877-0.083,1.227-0.382
	c0.145-0.124,0.257-0.292,0.367-0.451c0.339-0.494,0.352-0.816-0.159-1.33c-0.35-0.352-0.494-0.738-0.589-1.185
	c-0.193-0.906,0.04-1.65,0.792-2.221c0.045-0.034,0.008-0.256-0.057-0.333c-0.069-0.08-0.247-0.156-0.33-0.12
	c-0.645,0.269-1.02,0.8-1.217,1.436C132.743,113.322,132.472,114.26,132.445,115.315z M100.288,201.566
	c-0.163-0.108-0.211-0.163-0.265-0.171c-0.377-0.054-0.757-0.099-1.09,0.15c-0.013,0.009,0.008,0.1,0.038,0.122
	c0.348,0.261,0.721,0.125,1.087,0.055C100.114,201.712,100.162,201.654,100.288,201.566z M285.203,146.579
	c-0.087,0.084-0.172,0.159-0.246,0.246c-0.009,0.012,0.04,0.09,0.076,0.119c0.248,0.197,0.521,0.356,0.847,0.288
	c0.067-0.014,0.167-0.251,0.132-0.304C285.823,146.646,285.517,146.577,285.203,146.579z M360.551,288.836
	c-0.025,0.043-0.079,0.097-0.068,0.125c0.021,0.054,0.098,0.141,0.12,0.132c0.168-0.066,0.195-0.163,0.08-0.248
	C360.655,288.822,360.597,288.838,360.551,288.836z M130.753,150.343c-0.046-0.044-0.093-0.09-0.14-0.135
	c-0.045,0.048-0.089,0.096-0.134,0.144c0.069,0.046,0.137,0.092,0.206,0.139C130.707,150.443,130.729,150.396,130.753,150.343z
	 M125.956,152.881c0.043-0.043,0.118-0.084,0.12-0.127c0.002-0.044-0.07-0.091-0.11-0.137c-0.044,0.065-0.087,0.13-0.131,0.194
	C125.877,152.835,125.918,152.858,125.956,152.881z M92.992,201.566c-0.046-0.048-0.085-0.089-0.122-0.129
	c-0.044,0.075-0.1,0.146-0.123,0.227c-0.007,0.027,0.069,0.078,0.108,0.119C92.901,201.709,92.947,201.636,92.992,201.566z"/>
<path style="fill:#F7FCFE;" d="M376.874,350.188c-0.848-0.038-1.698-0.108-2.546-0.108c-47.692-0.005-95.386-0.004-143.078-0.005
	c-0.656,0-1.312,0.001-1.968-0.021c-0.456-0.016-0.719-0.259-0.734-0.735c-0.002-0.066-0.007-0.131-0.01-0.196
	c-0.066-1.441,0.03-1.543,1.503-1.568c0.525-0.009,1.05-0.002,1.575-0.002c47.626,0,95.254,0.001,142.88-0.004
	c0.849,0,1.699-0.066,2.549-0.1c0.665-0.004,1.328-0.007,1.993-0.01c0.848,0.039,1.698,0.112,2.546,0.113
	c35.679,0.005,71.358,0.005,107.037,0.006c0.655,0,1.311,0.003,1.965,0.036c0.281,0.014,0.499,0.201,0.509,0.496
	c0.017,0.52,0.015,1.045-0.029,1.563c-0.015,0.178-0.169,0.351-0.399,0.371c-0.195,0.017-0.39,0.048-0.585,0.05
	c-0.59,0.007-1.181,0.004-1.771,0.004c-35.483,0-70.964-0.001-106.447,0.005c-0.848,0-1.698,0.069-2.546,0.106
	C378.502,349.799,377.688,349.759,376.874,350.188z"/>
<path style="fill:#010B10;" d="M37.878,329.738c-0.387-3.981-0.742-7.962-1.223-11.933c-0.272-2.278-0.7-4.535-1.4-6.729
	c-0.909-2.863-1.233-3.03-4.274-2.435c-1.348,0.261-2.612,0.815-3.877,1.337c-0.899-1.452-0.899-1.452-2.351-1.661
	c-0.23,0.105-0.47,0.167-0.658-0.01c-0.042-0.052,0.084-0.282,0.136-0.439c0.387-0.711,1.097-1.108,1.672-1.641
	c0.533-0.481,1.17-0.92,1.526-1.515c0.867-1.442,2.1-2.497,3.406-3.49c0.585-0.439,1.149-0.92,1.358-1.641
	c0.303-1.003,0.993-1.672,1.776-2.288c1.024-0.825,2.048-1.641,3.072-2.456c0.261-0.209,0.658-0.293,0.648-0.752
	c-2.058,0.084-3.678,1.014-5.099,2.351c-0.387,0.355-0.773,0.721-1.097,1.128c-1.693,2.1-3.584,4.012-5.444,5.945
	c-1.829,1.902-3.385,4.012-4.441,6.457c-0.125,0.293-0.313,0.564-0.157,0.982c0.418-0.052,0.846-0.136,1.275-0.157
	c0.408-0.021,0.575,0.293,0.366,0.658c-0.491,0.857-1.17,1.567-1.86,2.278c-1.003,1.034-2.038,2.038-3.02,3.093
	c-1.411,1.505-2.435,3.25-2.936,5.266c-0.052,0.24-0.188,0.512,0.104,0.7c0.261,0.157,0.679,0.104,0.7,0.543
	c0.021,0.418-0.251,0.731-0.449,1.076c-1.118,1.923-2.247,3.845-3.375,5.768c-0.293,0.502-0.585,1.014-0.878,1.526
	c0.199,0.658,0.408,1.317,0.627,1.975c0.209-0.313,0.428-0.627,0.658-0.94c0.794-1.076,1.693-1.975,3.051-2.351
	c0.616-0.167,1.202-0.512,1.766-0.857c1.181-0.7,2.32-1.463,3.5-2.184c0.888-0.543,1.787-1.097,2.727-1.557
	c1.902-0.94,3.688-0.742,5.224,0.794c0.742,0.731,1.432,1.526,2.142,2.309c0.878,0.972,1.724,1.975,2.623,2.926
	c0.669,0.721,1.473,1.306,2.372,1.724c0.899,0.428,1.567,0.105,1.755-0.857C38.024,331.713,37.972,330.721,37.878,329.738z
	 M36.551,332.298c-0.418,0.146-0.752-0.199-1.014-0.46c-0.93-0.919-1.849-1.86-2.727-2.832c-1.097-1.212-2.121-2.487-3.239-3.688
	c-0.669-0.711-1.411-1.358-2.163-1.996c-0.711-0.596-1.526-0.658-2.382-0.282c-0.909,0.387-1.755,0.888-2.56,1.452
	c-1.39,0.982-2.759,1.996-4.159,2.957c-0.752,0.522-1.567,0.951-2.361,1.4c-0.23,0.136-0.512-0.104-0.522-0.376
	c-0.031-0.815,0.313-1.536,0.648-2.236c1.034-2.132,2.288-4.117,3.772-5.966c0.272-0.345,0.637-0.648,0.742-1.181
	c-1.076-0.303-1.776,0.763-2.717,0.784c-0.104-0.564,0.23-0.825,0.449-1.118c3.02-4.065,6.98-6.865,11.766-8.474
	c2.361-0.794,3.354-0.449,4.389,2.142c0.554,1.4,0.805,2.905,1.003,4.389c0.23,1.682,0.387,3.385,0.481,5.089
	c0.125,2.226,0.313,4.43,0.648,6.646c0.136,0.899,0.199,1.818,0.251,2.738C36.864,331.64,37.031,332.131,36.551,332.298z"/>
<g>
	<path style="fill:#F7FCFE;" d="M367.47,309.439c0.181-1.599,0.204-3.196-0.021-4.791c0.184-0.171,0.339-0.424,0.556-0.499
		c0.298-0.103,0.644-0.104,0.967-0.092c1.164,0.046,2.34-0.161,3.493,0.139c0.483,1.124,0.163,2.305,0.228,3.459
		c0.052,0.912,0,1.83,0.028,2.744c0.023,0.721,0.192,0.9,0.956,0.911c1.83,0.028,3.659,0.016,5.489,0.023
		c0.457,0.002,0.915,0.001,1.371,0.026c0.469,0.025,0.695,0.314,0.699,0.765c0.009,0.98,0.023,1.96-0.003,2.94
		c-0.016,0.597-0.219,0.787-0.864,0.8c-1.241,0.026-2.483,0.015-3.724,0.017c-0.915,0.002-1.83-0.015-2.744,0.005
		c-1.164,0.025-1.183,0.062-1.123,1.432c-0.034,1.737-0.065,3.474-0.106,5.211c-0.023,0.969,0.007,1.931,0.231,2.879
		c-0.336,0.681-0.222,1.414-0.225,2.127c-0.013,3.343-0.005,6.686-0.008,10.029c0,0.458-0.003,0.917-0.038,1.374
		c-0.028,0.373-0.265,0.592-0.638,0.597c-1.245,0.01-2.49,0.014-3.734-0.004c-0.28-0.004-0.497-0.206-0.523-0.49
		c-0.048-0.52-0.066-1.045-0.067-1.568c-0.004-4.85,0-9.702-0.006-14.552c-0.001-0.521-0.049-1.043-0.076-1.564
		c-0.008-0.157-0.094-0.254-0.254-0.241c-0.115,0.008-0.261,0.03-0.334,0.104c-0.229,0.232-0.44,0.484-0.641,0.741
		c-3.254,4.17-7.142,7.663-11.454,10.699c-2.687,1.891-5.535,3.504-8.569,4.774c-0.719,0.301-0.837,0.248-1.275-0.414
		c-0.037-0.054-0.067-0.113-0.098-0.17c-0.508-0.909-1.163-1.737-1.502-2.739c0.6-0.963,1.719-1.102,2.605-1.587
		c6.397-3.506,12.046-7.9,16.538-13.695c0.561-0.724,1.06-1.496,1.564-2.262c0.207-0.315,0.008-0.644-0.382-0.659
		c-0.523-0.021-1.048-0.021-1.573-0.021c-4.85-0.001-9.702,0.004-14.552-0.004c-1.735-0.003-1.763-0.018-1.749-1.722
		c0.027-3.197-0.44-2.813,2.809-2.822c5.703-0.016,11.406-0.002,17.109-0.006C367.335,311.325,367.816,311.51,367.47,309.439z"/>
	<path style="fill:#F7FCFE;" d="M278.228,319.181c-0.53,0.485-1.07,0.958-1.586,1.458c-1.75,1.69-3.61,3.24-5.687,4.516
		c-0.385,0.236-0.739,0.553-1.323,0.574c-0.903-0.947-1.761-1.995-2.45-3.152c0.435-0.63,1.058-0.89,1.584-1.27
		c5.789-4.192,9.942-9.633,12.481-16.31c0.093-0.245,0.174-0.494,0.273-0.736c0.14-0.344,0.404-0.504,0.771-0.457
		c1.169,0.151,2.34,0.299,3.506,0.475c0.465,0.07,0.652,0.39,0.514,0.863c-0.183,0.628-0.415,1.242-0.614,1.866
		c-0.099,0.311-0.216,0.63,0.123,1.073c0.523,0,1.173,0,1.824,0c4.459,0,8.917,0,13.375,0c0.459,0,0.918-0.008,1.377,0.003
		c1.189,0.03,1.297,0.097,1.23,1.207c-0.084,1.373-0.166,2.755-0.398,4.108c-0.613,3.573-1.712,6.99-3.422,10.207
		c-2.662,5.007-6.523,8.82-11.432,11.605c-3.624,2.055-7.524,3.37-11.564,4.308c-0.191,0.044-0.388,0.066-0.582,0.098
		c-0.426,0.071-0.766,0.006-0.926-0.476c-0.329-0.996-0.693-1.979-1.017-2.976c-0.145-0.446,0.045-0.711,0.561-0.838
		c1.335-0.328,2.691-0.588,4.008-0.977c3.808-1.123,7.338-2.811,10.432-5.336c0.507-0.414,1-0.849,1.472-1.302
		c0.492-0.471,0.469-0.761-0.07-1.065c-0.513-0.289-1.042-0.553-1.573-0.812c-3.007-1.465-6.093-2.746-9.231-3.903
		c-0.492-0.182-0.986-0.356-1.477-0.538c-0.375-0.139-0.495-0.396-0.322-0.765c0.166-0.352,0.341-0.7,0.512-1.05
		c0.241-0.305,0.513-0.591,0.718-0.92c0.719-1.151,0.837-1.344,2.187-0.816c0.976,0.381,1.98,0.689,2.962,1.056
		c3.071,1.15,6.059,2.496,9.034,3.871c0.933,0.432,1.061,0.387,1.561-0.478c1.596-2.756,2.538-5.744,3.09-8.865
		c0.033-0.19,0.016-0.391,0.017-0.586c0.002-0.228-0.151-0.391-0.334-0.413c-0.452-0.055-0.913-0.071-1.37-0.072
		c-3.279-0.005-6.559-0.003-9.838-0.002c-0.918,0-1.836,0.011-2.754,0.005c-0.507-0.004-0.863,0.199-1.12,0.644
		C281.467,315.225,279.777,317.152,278.228,319.181z"/>
</g>
<path style="fill:#010B10;" d="M86.195,270.555c-0.033,0.544-0.754,0.484-0.875,0.964c0.067,0.089,0.134,0.262,0.207,0.264
	c2.189,0.085,4.264,0.658,6.303,1.413c1.598,0.59,3.197,1.177,4.894,1.442c0.379,0.06,0.758,0.217,1.101,0.397
	c2.852,1.488,5.839,2.669,8.795,3.923c1.447,0.614,2.88,1.265,4.3,1.941c1.6,0.762,3.137,1.64,4.589,2.662
	c2.912,2.049,5.198,4.603,6.438,7.993c0.245,0.67,0.563,1.104,1.373,1.12c0.986,0.02,1.696,0.662,2.314,1.352
	c0.612,0.682,1.164,1.42,1.74,2.135c1.178,1.46,2.475,2.732,4.485,2.903c0.558,0.047,0.735,0.5,0.946,0.898
	c1.393,2.624,3.199,4.955,5.094,7.224c0.967,1.159,1.949,2.304,2.923,3.458c1.906,2.256,3.783,4.533,5.448,6.977
	c1.86,2.729,3.334,5.637,4.303,8.802c0.728,2.382,1.505,4.75,2.261,7.124c0.761,2.384,1.816,4.635,3.072,6.797
	c1.02,1.758,2.019,3.529,3.022,5.297c1.261,2.224,1.758,4.636,1.808,7.172c0.047,2.372-0.259,4.714-0.525,7.06
	c-0.243,2.15-0.544,4.293-0.616,6.463c-0.077,2.326,0.26,4.569,1.039,6.764c0.416,1.172,0.792,2.367,1.06,3.579
	c0.228,1.034,0.601,2.122-0.097,3.148c-1.019-0.497-1.412-1.512-1.885-2.415c-1.052-2.003-1.506-4.188-1.683-6.428
	c-0.284-3.609-0.053-7.213,0.152-10.817c0.096-1.703,0.172-3.407,0.23-5.112c0.143-4.202-0.66-8.23-2.351-12.066
	c-1.03-2.338-2.135-4.647-3.284-6.93c-1.564-3.108-3.034-6.251-4.204-9.532c-0.841-2.359-2.024-4.557-3.439-6.616
	c-1.262-1.837-2.571-3.646-3.941-5.404c-2.058-2.642-4.036-5.334-5.804-8.181c-0.97-1.561-2.051-3.045-3.257-4.439
	c-0.745-0.861-1.587-1.532-2.668-1.941c-0.853-0.323-1.676-0.745-2.468-1.201c-0.822-0.474-1.449-1.157-1.516-2.168
	c-0.051-0.772-0.495-1.178-1.158-1.418c-1.047-0.38-2.089-0.795-3.209-0.903c-0.576-0.055-1.016-0.23-1.179-0.837
	c-0.192-0.718-0.639-1.286-1.103-1.841c-0.179-0.213-0.344-0.487-0.185-0.692c0.161-0.207,0.482-0.064,0.741-0.04
	c0.594,0.055,0.741-0.123,0.545-0.585c-0.496-1.178-1.298-2.112-2.279-2.914c-1.833-1.499-3.777-2.846-5.835-4.004
	c-4.517-2.541-9.163-4.82-14.079-6.508c-4.115-1.413-8.356-2.212-12.675-2.637c-0.392-0.039-0.79-0.037-1.173-0.112
	c-0.772-0.151-1.251-0.565-1.423-1.405c-0.277-1.35-0.588-1.519-2.041-1.375c-8.404,0.835-16.268,3.361-23.617,7.518
	c-4.872,2.756-9.332,6.091-13.62,9.668c-1.209,1.008-2.4,2.039-3.605,3.052c-0.147,0.124-0.356,0.246-0.516,0.071
	c-0.119-0.131-0.204-0.344-0.206-0.52c-0.006-0.625,0.261-1.161,0.725-1.556c0.496-0.423,1.015-0.843,1.583-1.154
	c1.344-0.735,2.463-1.724,3.503-2.831c1.932-2.056,3.865-4.112,5.837-6.128c1.748-1.788,3.671-3.375,5.803-4.691
	c1.399-0.863,2.878-1.565,4.461-2.025c0.096-0.028,0.265,0.034,0.335,0.114c0.072,0.082,0.124,0.261,0.084,0.35
	c-0.191,0.409-0.43,0.795-0.622,1.205c-0.04,0.085,0.02,0.262,0.094,0.342c0.073,0.079,0.245,0.149,0.334,0.117
	c0.554-0.199,1.101-0.417,1.643-0.647c2.05-0.871,4.071-1.817,6.151-2.611c3.895-1.487,7.919-2.322,12.122-2.087
	c1.643,0.092,3.257,0.354,4.849,0.757C85.939,270.296,86.136,270.315,86.195,270.555z M57.627,276.228
	c0.853-0.211,1.719-0.386,2.363-1.071c0.041-0.043,0.085-0.144,0.065-0.171c-0.074-0.099-0.192-0.265-0.264-0.252
	c-0.816,0.157-1.615,0.38-2.315,0.851c-0.082,0.055-0.133,0.236-0.112,0.342C57.384,276.029,57.515,276.108,57.627,276.228z
	 M57.075,276.467c0.044-0.045,0.089-0.092,0.134-0.139c-0.048-0.044-0.095-0.088-0.143-0.132c-0.046,0.068-0.092,0.136-0.138,0.204
	C56.976,276.423,57.023,276.443,57.075,276.467z"/>
<g>
	<path style="fill:#F7FCFE;" d="M380.231,379.047c-0.376-1.108-0.812-2.2-1.116-3.326c-0.513-1.902-0.656-3.846-0.431-5.813
		c0.06-0.515,0.086-1.034,0.126-1.549c0.469-1.65,1.084-3.25,1.782-4.818c0.309-0.42,0.628-0.834,0.925-1.262
		c2.689-3.883,6.43-6.147,11.035-6.874c6.581-1.04,12.317,0.835,17.178,5.389c0.143,0.135,0.286,0.272,0.412,0.422
		c0.177,0.213,0.289,0.471,0.06,0.697c-0.841,0.827-1.689,1.646-2.556,2.445c-0.214,0.197-0.506,0.116-0.716-0.063
		c-0.399-0.34-0.765-0.719-1.166-1.055c-2.525-2.121-5.405-3.442-8.699-3.8c-4.538-0.493-10.899,1.9-13.23,7.919
		c-2.008,5.187-0.072,11.19,4.706,14.35c3.471,2.296,7.284,2.945,11.29,1.883c3.435-0.91,5.897-3.046,7.145-6.451
		c0.089-0.243,0.158-0.499,0.196-0.757c0.044-0.296-0.1-0.515-0.406-0.533c-0.588-0.034-1.179-0.042-1.768-0.044
		c-2.098-0.007-4.197,0.003-6.296-0.018c-0.661-0.006-0.815-0.184-0.866-0.799c-0.01-0.131-0.013-0.262-0.01-0.393
		c0.061-3.351-0.529-2.947,2.861-2.965c3.081-0.018,6.164-0.005,9.246-0.002c0.525,0,1.049,0.006,1.572,0.036
		c0.283,0.016,0.476,0.183,0.534,0.475c0.013,0.064,0.033,0.129,0.034,0.192c0.013,4.968-1.488,9.285-5.432,12.534
		c-2.025,1.668-4.38,2.634-6.949,3.033c-2.609,0.405-5.223,0.367-7.825-0.168c-2.347-0.483-4.497-1.396-6.444-2.795
		c-0.317-0.228-0.659-0.42-0.99-0.628C382.948,382.622,381.484,380.919,380.231,379.047z"/>
	<path style="fill:#F7FCFE;" d="M267.803,336.53c-0.086,0.417-0.345,0.621-0.609,0.809c-1.063,0.758-1.949,1.751-3.136,2.343
		c-1.227-0.577-1.939-1.723-2.859-2.63c-3.271-3.228-6.651-6.333-10.101-9.366c-0.295-0.259-0.602-0.507-0.908-0.752
		c-0.288-0.231-0.588-0.264-0.878-0.005c-0.586,0.525-1.168,1.054-1.749,1.584c-3.504,3.191-7.258,6.042-11.385,8.384
		c-1.656,0.94-3.361,1.776-5.127,2.491c-0.433,0.176-0.763,0.095-0.999-0.307c-0.621-1.061-1.293-2.095-1.786-3.142
		c0.356-0.55,0.832-0.632,1.242-0.818c7.595-3.453,13.977-8.507,19.409-14.791c1.981-2.291,3.612-4.83,4.939-7.557
		c0.201-0.413,0.394-0.83,0.563-1.255c0.142-0.356-0.048-0.693-0.397-0.707c-0.589-0.026-1.181-0.028-1.771-0.028
		c-5.511-0.002-11.023-0.001-16.533-0.001c-0.525,0-1.05,0.011-1.575-0.014c-0.654-0.031-0.821-0.2-0.875-0.802
		c-0.006-0.065-0.01-0.132-0.008-0.196c0.092-4.007-0.717-3.348,3.208-3.369c7.085-0.038,14.171-0.011,21.257-0.009
		c0.525,0,1.052-0.017,1.574,0.025c0.8,0.065,1.27,0.635,1.671,1.24c0.196,0.295,0.004,0.632-0.098,0.94
		c-0.935,2.809-2.135,5.498-3.613,8.065c-1.148,1.994-2.449,3.881-3.873,5.687c-0.472,0.599-0.445,0.805,0.133,1.311
		c2.565,2.248,5.159,4.466,7.707,6.732c1.96,1.744,3.873,3.541,5.801,5.322C267.313,335.975,267.565,336.276,267.803,336.53z"/>
	<path style="fill:#F7FCFE;" d="M332.443,371.749c-0.158-8.13,6.16-16.541,16.359-16.622c9.959-0.078,16.827,7.96,16.763,16.638
		c-0.064,8.773-7.305,16.459-16.603,16.43C339.361,388.163,332.135,380.162,332.443,371.749z M361.173,371.628
		c-0.04-8.047-6.591-12.309-12.197-12.313c-6.331-0.005-12.25,5.059-12.198,12.513c0.047,6.758,5.359,12.194,12.087,12.158
		C355.987,383.948,361.17,378.601,361.173,371.628z"/>
	<path style="fill:#F7FCFE;" d="M434.423,306.859c3.804,0,7.61,0.001,11.414-0.002c0.523,0,1.049-0.006,1.572-0.043
		c0.343-0.024,0.443-0.318,0.327-0.561c-0.42-0.886-0.88-1.754-1.339-2.622c-0.452-0.856-0.453-1.009,0.337-1.355
		c3.167-1.388,2.355-1.835,4.198,1.297c0.664,1.127,1.176,2.343,1.769,3.512c0.231,0.456,0.243,0.837-0.143,1.237
		c-0.509,0.529-0.332,1.24-0.375,1.879c-0.213,3.151-0.772,6.238-1.566,9.294c-2.042,7.861-7.027,13.173-14.252,16.554
		c-4.083,1.911-8.427,2.871-12.876,3.412c-1.011,0.123-1.133,0.039-1.404-0.891c-0.257-0.881-0.492-1.769-0.704-2.661
		c-0.19-0.799-0.088-0.956,0.68-1.034c2.224-0.228,4.416-0.622,6.567-1.22c3.697-1.028,7.121-2.636,10.263-4.851
		c2.303-1.624,4.056-3.708,5.339-6.199c1.615-3.137,2.36-6.519,2.773-9.991c0.007-0.065,0.009-0.131,0.011-0.196
		c0.026-0.771-0.13-0.974-0.844-1.011c-0.523-0.028-1.049-0.018-1.574-0.018c-7.085-0.001-14.17,0.009-21.255-0.005
		c-2.741-0.005-2.416,0.334-2.427-2.385c-0.01-2.383-0.164-2.125,2.092-2.132C426.813,306.852,430.618,306.859,434.423,306.859z"/>
	<path style="fill:#F7FCFE;" d="M295.018,371.636c0-4.585,0-9.17,0.001-13.755c0-0.393-0.007-0.787,0.015-1.179
		c0.033-0.59,0.227-0.764,0.862-0.813c0.131-0.01,0.262-0.01,0.393-0.009c3.668,0.011,7.336-0.087,10.996,0.239
		c1.636,0.146,3.256,0.389,4.8,0.963c5.107,1.9,8.049,5.671,9.208,10.89c0.677,3.052,0.584,6.119-0.284,9.138
		c-0.587,2.041-1.575,3.876-2.928,5.512c-2.351,2.842-5.467,4.195-9.054,4.557c-1.496,0.15-3.006,0.202-4.511,0.219
		c-2.75,0.033-5.502,0.02-8.253,0.002c-1.167-0.007-1.235-0.076-1.239-1.225c-0.013-4.06-0.006-8.122-0.006-12.184
		C295.016,373.207,295.018,372.421,295.018,371.636z M299.087,371.587c0,1.048,0,2.095,0,3.143c0.001,2.488-0.009,4.977,0.008,7.465
		c0.006,0.924,0.15,1.092,0.975,1.094c2.945,0.006,5.893,0.111,8.819-0.374c3.827-0.634,6.451-2.758,7.771-6.39
		c0.991-2.724,1.018-5.53,0.207-8.306c-1.161-3.975-3.751-6.492-7.806-7.488c-1.283-0.316-2.59-0.413-3.889-0.511
		c-1.76-0.133-3.532-0.105-5.299-0.132c-0.45-0.007-0.741,0.222-0.766,0.696c-0.021,0.392-0.021,0.785-0.021,1.178
		C299.086,365.17,299.086,368.378,299.087,371.587z"/>
	<path style="fill:#F7FCFE;" d="M462.135,370.127c0.466,0.29,0.788,0.509,1.126,0.7c4.399,2.486,5.489,8.512,2.372,12.664
		c-1.528,2.035-3.583,3.232-6.073,3.68c-0.707,0.127-1.433,0.213-2.15,0.22c-2.754,0.027-5.509,0.024-8.263,0.01
		c-0.956-0.005-1.044-0.11-1.083-0.986c-0.018-0.393-0.007-0.787-0.007-1.181c0-9.05-0.001-18.1,0.001-27.15
		c0.001-2.436-0.157-2.214,2.248-2.202c2.358,0.013,4.724-0.139,7.074,0.188c0.712,0.099,1.433,0.204,2.117,0.413
		c5.16,1.575,7.164,7.802,3.913,12.124C463.057,369.076,462.658,369.507,462.135,370.127z M454.774,372.799
		c-0.24,0-0.831-0.015-1.419,0.003c-0.975,0.03-1.134,0.171-1.139,1.158c-0.017,2.687-0.007,5.375-0.005,8.063
		c0,0.196,0.012,0.393,0.033,0.587c0.043,0.38,0.284,0.606,0.643,0.605c1.572-0.007,3.147,0.008,4.715-0.09
		c0.839-0.052,1.684-0.212,2.48-0.564c3.422-1.516,3.985-5.91,1.033-8.204c-0.953-0.741-2.056-1.153-3.249-1.294
		C456.956,372.955,456.038,372.904,454.774,372.799z M452.213,364.205c0.003,0,0.005,0,0.008,0c0,1.179-0.017,2.356,0.007,3.534
		c0.013,0.589,0.238,0.787,0.859,0.824c1.382,0.085,2.748-0.097,4.095-0.372c0.705-0.144,1.353-0.487,1.898-0.986
		c1.262-1.157,1.764-2.567,1.389-4.252c-0.364-1.633-1.562-2.297-3.063-2.653c-1.426-0.34-2.865-0.211-4.301-0.214
		c-0.718-0.001-0.869,0.182-0.886,0.977C452.196,362.11,452.213,363.158,452.213,364.205z"/>
	<path style="fill:#F7FCFE;" d="M436.97,371.81c0,4.459,0.001,8.918-0.001,13.377c0,0.525-0.003,1.049-0.033,1.573
		c-0.022,0.374-0.26,0.576-0.627,0.626c-0.065,0.009-0.131,0.014-0.196,0.014c-4.029-0.051-3.362,0.67-3.408-3.184
		c-0.037-3.081-0.007-6.164-0.008-9.245c0-0.393,0.007-0.788-0.019-1.18c-0.048-0.732-0.251-0.946-0.926-1.002
		c-0.261-0.022-0.525-0.02-0.786-0.02c-3.607-0.001-7.213-0.001-10.82,0c-0.262,0-0.525,0.009-0.787,0.021
		c-0.455,0.02-0.731,0.245-0.753,0.712c-0.025,0.523-0.037,1.048-0.038,1.572c-0.003,3.475-0.001,6.951-0.005,10.426
		c-0.001,0.458-0.013,0.916-0.051,1.372c-0.025,0.295-0.24,0.459-0.522,0.491c-0.324,0.037-0.653,0.054-0.979,0.049
		c-3.168-0.046-2.729,0.42-2.736-2.673c-0.019-8.787-0.006-17.573-0.006-26.361c0-0.459-0.01-0.918,0.004-1.377
		c0.031-1.002,0.119-1.092,1.15-1.117c0.721-0.018,1.443-0.021,2.164,0.004c0.789,0.028,0.936,0.174,0.968,0.915
		c0.022,0.523,0.01,1.049,0.01,1.574c0.001,2.754-0.001,5.508,0.002,8.262c0,0.393,0.009,0.787,0.031,1.179
		c0.025,0.447,0.247,0.728,0.72,0.75c0.327,0.015,0.655,0.024,0.983,0.024c3.541,0.002,7.082,0.003,10.622-0.002
		c0.391-0.001,0.784-0.033,1.172-0.078c0.289-0.033,0.483-0.238,0.513-0.511c0.059-0.518,0.089-1.043,0.091-1.565
		c0.008-2.885,0.003-5.77,0.005-8.656c0-0.393-0.001-0.787,0.02-1.18c0.019-0.357,0.189-0.67,0.565-0.678
		c1.046-0.023,2.094-0.009,3.14,0.023c0.281,0.008,0.47,0.234,0.489,0.525c0.032,0.522,0.05,1.047,0.051,1.57
		C436.971,362.631,436.97,367.22,436.97,371.81z"/>
	<path style="fill:#F7FCFE;" d="M268.565,367.803c0-3.212-0.001-6.425,0.001-9.637c0-0.525,0.002-1.049,0.02-1.573
		c0.013-0.361,0.181-0.666,0.562-0.674c1.047-0.023,2.094-0.011,3.141,0.016c0.278,0.007,0.49,0.21,0.511,0.504
		c0.037,0.521,0.05,1.046,0.051,1.568c0.003,5.77-0.001,11.539,0.005,17.309c0.001,1.048,0,2.1,0.08,3.145
		c0.249,3.183,2.46,5.274,5.825,5.561c3.042,0.26,5.738-1.644,6.457-4.605c0.169-0.696,0.239-1.423,0.28-2.14
		c0.062-1.112,0.078-2.228,0.079-3.342c0.007-5.31,0.002-10.621,0.005-15.932c0-0.523,0.008-1.048,0.047-1.569
		c0.021-0.286,0.232-0.49,0.513-0.495c1.046-0.02,2.093-0.019,3.139,0c0.284,0.005,0.488,0.206,0.517,0.495
		c0.04,0.39,0.05,0.784,0.05,1.176c0.001,5.835,0.005,11.67-0.006,17.505c-0.004,1.972-0.169,3.931-0.681,5.843
		c-1.062,3.964-4.361,6.747-8.461,7.132c-1.578,0.148-3.142,0.056-4.678-0.366c-4.3-1.181-6.932-4.294-7.308-8.713
		c-0.106-1.239-0.132-2.488-0.142-3.732C268.55,372.786,268.565,370.294,268.565,367.803z"/>
</g>
<path style="fill:#010B10;" d="M128.713,246.967c-0.171-0.911,0.083-1.666-0.642-2.332c-0.399-0.368-0.316-0.979-0.09-1.488
	c0.292-0.657,0.622-1.298,0.898-1.961c0.131-0.313,0.126-0.659-0.273-0.813c-0.365-0.141-0.538-0.343-0.331-0.728
	c0.21-0.392,0.539-0.565,0.974-0.471c0.185,0.041,0.38,0.123,0.525,0.242c0.301,0.25,0.638,0.494,0.843,0.815
	c1.116,1.755,1.419,1.502,3.224,1.797c9.893,1.622,19.66,3.83,29.351,6.387c10.888,2.875,21.66,6.15,32.441,9.394
	c2.388,0.718,4.813,1.26,7.239,1.8c2.763,0.614,5.383,1.628,7.978,2.724c0.97,0.41,1.876,0.932,2.639,1.677
	c0.475,0.465,0.854,0.993,1.114,1.604c0.127,0.3,0.28,0.65,0.099,0.933c-0.214,0.335-0.6,0.168-0.9,0.089
	c-3.607-0.953-7.221-1.882-10.815-2.887c-10.59-2.96-21.17-5.961-31.758-8.929c-11.225-3.145-22.548-5.889-34.008-8.042
	c-2.123-0.399-4.267-0.693-6.391-1.093c-0.675-0.127-1.131-0.012-1.485,0.589C129.19,246.537,128.927,246.738,128.713,246.967z
	 M209.693,263.29c-0.546-0.172-1.091-0.351-1.639-0.517c-3.698-1.118-7.392-2.25-11.096-3.348
	c-11.112-3.292-22.241-6.533-33.473-9.395c-6.154-1.568-12.334-3.041-18.486-4.621c-3.173-0.815-6.33-1.693-9.587-2.113
	c-1.857-0.239-3.722-0.321-5.599-0.137c0.057,0.368,0.298,0.331,0.472,0.369c1.345,0.287,2.692,0.563,4.037,0.845
	c11.218,2.352,22.385,4.925,33.472,7.829c7.917,2.075,15.829,4.179,23.617,6.709c4.048,1.316,8.081,2.684,12.221,3.687
	C205.598,263.078,207.568,263.596,209.693,263.29z"/>
<g>
	<path style="fill:#F7FCFE;" d="M238.528,388.156c-2.947-0.008-5.256-0.937-7.15-2.85c-0.414-0.418-0.825-0.853-1.155-1.336
		c-0.649-0.955-1.523-1.797-1.644-3.041c0.827-0.87,1.951-1.285,2.935-1.914c0.252-0.161,0.508-0.041,0.666,0.205
		c0.283,0.44,0.535,0.902,0.828,1.335c0.589,0.87,1.231,1.696,2.081,2.337c1.857,1.4,4.142,1.431,6.027,0.072
		c1.756-1.266,2.308-3.472,1.347-5.416c-0.382-0.772-0.94-1.415-1.533-2.032c-1.274-1.33-2.726-2.449-4.166-3.588
		c-1.283-1.016-2.568-2.039-3.763-3.155c-1.486-1.389-2.346-3.141-2.52-5.185c-0.443-5.203,3.652-8.671,8.37-8.438
		c1.891,0.093,3.58,0.744,5.043,1.952c0.403,0.333,0.809,0.676,1.148,1.071c2.708,3.147,2.508,2.26-0.34,4.548
		c-0.94,0.755-1.072,0.575-1.708-0.234c-0.525-0.667-1.111-1.294-1.733-1.869c-0.971-0.899-2.162-1.188-3.463-1.049
		c-2.178,0.232-3.467,2.16-2.829,4.252c0.336,1.102,1.037,1.97,1.917,2.679c1.071,0.863,2.171,1.69,3.272,2.515
		c1.416,1.063,2.803,2.158,4.049,3.423c0.739,0.751,1.411,1.554,1.946,2.461c3.737,6.333-1.072,12.442-6.32,13.139
		C239.316,388.107,238.792,388.133,238.528,388.156z"/>
	<path style="fill:#F7FCFE;" d="M490.312,314.132c0,2.359-0.01,4.719,0.004,7.078c0.009,1.451-0.166,2.882-0.502,4.286
		c-0.99,4.143-3.265,7.387-6.875,9.677c-2.405,1.526-5.022,2.529-7.78,3.197c-2.3,0.558-4.644,0.819-6.99,1.061
		c-1.09,0.112-1.337,0.028-1.593-1.188c-0.147-0.704-0.387-1.388-0.558-2.088c-0.253-1.029-0.168-1.17,0.846-1.238
		c2.032-0.136,4.039-0.446,6.025-0.878c1.925-0.419,3.793-1.014,5.566-1.894c4.262-2.119,6.432-5.613,6.782-10.301
		c0.053-0.718,0.044-1.441,0.044-2.162c0.003-4.326,0-8.652,0.003-12.977c0-0.523,0.016-1.047,0.048-1.569
		c0.018-0.287,0.195-0.515,0.486-0.52c1.308-0.022,2.616-0.024,3.924-0.011c0.281,0.003,0.494,0.186,0.517,0.486
		c0.034,0.456,0.053,0.914,0.054,1.372c0.005,2.556,0.002,5.112,0.002,7.669C490.315,314.132,490.313,314.132,490.312,314.132z"/>
</g>
<path style="fill:#010B10;" d="M210.954,246.981c-4.208,0.001-8.365-0.53-12.487-1.321c-5.207-0.999-10.395-2.098-15.595-3.131
	c-5.93-1.178-11.91-1.796-17.965-1.698c-2.882,0.047-5.767-0.009-8.648-0.099c-2.298-0.072-4.559-0.468-6.764-1.131
	c-0.688-0.207-1.377-0.434-2.025-0.739c-0.602-0.283-1.618-0.299-1.495-1.258c0.165-1.302,1.262-2.297,2.304-2.34
	c0.26-0.01,0.523,0.02,0.785,0.046c2.738,0.272,5.474,0.556,8.213,0.816c3.652,0.346,7.304,0.696,10.959,1.004
	c6.463,0.544,12.918,1.142,19.354,1.964c5.981,0.764,11.918,1.745,17.768,3.212c2.03,0.509,4.035,1.116,6.115,1.427
	c0.704,0.106,1.4,0.339,2.07,0.59c0.753,0.284,1.335,0.807,1.738,1.523c0.303,0.54,0.177,0.91-0.402,0.999
	c-0.452,0.069-0.911,0.117-1.369,0.127C212.659,246.996,211.806,246.981,210.954,246.981z M147.744,237.278
	c0.227,0.597,0.699,0.626,1.136,0.709c2.584,0.491,5.208,0.609,7.822,0.715c6.746,0.273,13.474,0.699,20.174,1.577
	c5.52,0.723,11.003,1.666,16.488,2.603c4.775,0.816,9.548,1.643,14.326,2.444c0.882,0.148,1.781,0.223,2.817,0.064
	c-0.512-0.447-1.035-0.512-1.515-0.646c-3.789-1.055-7.644-1.79-11.525-2.407c-4.655-0.741-9.304-1.526-13.967-2.207
	c-3.563-0.52-7.141-0.942-10.72-1.348c-3.058-0.347-6.129-0.585-9.19-0.911c-4.369-0.466-8.752-0.684-13.139-0.877
	C149.546,236.955,148.635,236.963,147.744,237.278z"/>
<g>
	<path style="fill:#F7FCFE;" d="M343.373,318.954c-0.247,0.769-0.723,1.471-1.167,2.182c-3.05,4.884-7.141,8.697-12.064,11.636
		c-6.08,3.63-12.721,5.508-19.719,6.242c-0.613,0.065-0.865-0.085-1.034-0.653c-0.299-1.005-0.566-2.02-0.823-3.036
		c-0.128-0.505,0.037-0.758,0.535-0.839c0.906-0.148,1.818-0.26,2.724-0.406c4.29-0.694,8.483-1.762,12.425-3.616
		c5.885-2.769,10.758-6.728,14.191-12.342c0.983-1.609,0.788-1.573,2.554-0.647c0.696,0.365,1.391,0.734,2.078,1.115
		C343.175,318.647,343.235,318.784,343.373,318.954z"/>
	<path style="fill:#F7FCFE;" d="M386.489,339.009c-0.639,0.018-0.835-0.134-0.95-0.394c-0.079-0.18-0.17-0.36-0.209-0.551
		c-0.224-1.086-0.697-2.115-0.737-3.242c0.968-0.658,2.121-0.529,3.19-0.713c3.304-0.567,6.546-1.347,9.706-2.475
		c4.708-1.683,8.797-4.351,12.435-7.747c1.399-1.306,2.564-2.807,3.639-4.38c0.481-0.704,0.926-1.433,1.404-2.138
		c0.422-0.623,0.563-0.677,1.287-0.282c3.928,2.143,3.912,1.027,1.37,4.962c-3.238,5.011-7.699,8.73-12.914,11.563
		c-5.674,3.082-11.782,4.72-18.174,5.395C386.408,339.019,386.277,339.019,386.489,339.009z"/>
	<path style="fill:#F7FCFE;" d="M255.293,373.628c0-3.668,0-7.335,0-11.003c0-0.459,0.009-0.917-0.004-1.375
		c-0.032-1.069-0.1-1.147-1.091-1.176c-0.72-0.02-1.441-0.005-2.161-0.007c-0.852-0.002-1.703,0.011-2.554-0.014
		c-0.757-0.023-0.906-0.154-0.897-0.957c0.042-3.704-0.601-3.188,2.984-3.211c4.191-0.026,8.383-0.007,12.575-0.004
		c0.523,0,1.047,0.011,1.569,0.043c0.382,0.023,0.576,0.275,0.599,0.639c0.024,0.392,0.025,0.786,0.022,1.179
		c-0.021,2.594,0.258,2.309-2.297,2.328c-1.048,0.007-2.096-0.011-3.144,0.006c-1.201,0.02-1.248,0.07-1.281,1.185
		c-0.014,0.458-0.004,0.916-0.004,1.375c0,7.597,0.002,15.195-0.002,22.792c-0.001,1.965,0.209,1.998-1.866,1.985
		c-2.803-0.017-2.43,0.216-2.443-2.389C255.279,381.226,255.293,377.428,255.293,373.628z"/>
</g>
<path style="fill:#010B10;" d="M136.535,204.986c0.154-3.154,0.528-6.401,1.339-9.598c0.551-2.172,1.615-3.999,3.285-5.476
	c0.638-0.564,1.307-1.094,1.968-1.631c5.89-4.792,14.661-3.275,19.259,1.328c2.427,2.43,4.035,5.321,4.99,8.579
	c1.159,3.954,1.402,7.992,0.942,12.083c-0.076,0.679-0.342,1.257-0.69,1.817c-1.031,1.657-2.482,2.865-4.146,3.836
	c-2.472,1.443-5.172,2.25-7.982,2.616c-3.603,0.47-7.199,0.406-10.725-0.628c-1.84-0.54-3.568-1.305-5.066-2.532
	c-1.698-1.392-2.734-3.149-2.976-5.356C136.554,208.39,136.427,206.757,136.535,204.986z M166.477,205.576
	c-0.07-1.391-0.075-2.904-0.237-4.399c-0.3-2.751-0.925-5.422-2.267-7.883c-0.926-1.696-2.091-3.188-3.736-4.228
	c-4.097-2.588-9.778-3.228-14.484-0.079c-1.487,0.995-2.769,2.212-3.816,3.654c-3.086,4.251-4.51,9.009-4.023,14.247
	c0.558,6.013,3.556,8.741,8.776,9.834c4.75,0.994,9.389,0.428,13.881-1.351c1.653-0.655,3.175-1.543,4.505-2.753
	c0.668-0.608,1.062-1.306,1.111-2.211C166.27,208.836,166.374,207.267,166.477,205.576z"/>
<path style="fill:#F7FCFE;" d="M478.177,383.258c-0.794,1.4-1.609,2.779-2.435,4.159h-4.315c-0.199,0-0.397,0-0.585-0.01
	c-0.794-0.052-0.93-0.178-0.972-0.909c-0.021-0.397-0.01-0.784-0.01-1.181v-27.303c0-2.215-0.199-2.142,2.121-2.142
	c2.351,0,2.152-0.084,2.152,2.111c0.01,7.523,0,15.057,0,22.591c0,0.522-0.01,1.045,0.01,1.567c0.042,0.993,0.136,1.108,1.181,1.108
	C476.275,383.258,477.226,383.258,478.177,383.258z"/>
<g>
	<path style="fill:#010B10;" d="M81.644,351.679c-0.059,2.23-0.113,4.46-0.178,6.689c-0.011,0.392-0.037,0.787-0.108,1.171
		c-0.049,0.265-0.243,0.46-0.541,0.476c-0.408,0.023-0.603-0.24-0.628-0.59c-0.043-0.587-0.038-1.179-0.04-1.769
		c-0.018-3.608,0.008-7.217-0.06-10.825c-0.053-2.829-0.441-5.623-1.211-8.354c-0.357-1.268-0.846-2.485-1.605-3.571
		c-1.337-1.917-3.119-2.698-5.454-2.184c-1.36,0.3-2.643,0.787-3.844,1.462c-4.631,2.604-8.537,6.071-11.935,10.131
		c-0.168,0.201-0.311,0.422-0.463,0.636c-0.19,0.269-0.401,0.551-0.231,0.894c0.173,0.35,0.531,0.354,0.851,0.312
		c1.105-0.143,2.205-0.325,3.31-0.47c1.559-0.205,3.12-0.402,4.683-0.578c0.455-0.051,0.917-0.014,1.377-0.025
		c2.63-0.066,4.665,0.825,5.999,3.272c1.662,3.05,3.506,6.002,5.267,8.997c0.565,0.96,1.066,1.964,1.699,2.878
		c0.627,0.906,1.273,1.869,2.571,1.924c0.083,0.003,0.203,0.16,0.229,0.263c0.055,0.22-0.104,0.347-0.277,0.455
		c-0.489,0.308-0.974,0.285-1.496,0.059c-0.747-0.325-1.31-0.865-1.825-1.465c-0.816-0.949-1.473-2.008-2.1-3.087
		c-0.957-1.644-1.893-3.299-2.867-4.932c-0.841-1.411-1.787-2.748-2.926-3.943c-1.624-1.703-3.546-2.604-5.957-2.499
		c-2.039,0.088-4.047,0.39-6.064,0.637c-0.981,0.12-1.96,0.23-2.941,0.139c-1.317-0.122-1.728-0.765-1.353-1.997
		c0.272-0.889,0.72-1.694,1.261-2.437c3.536-4.85,7.922-8.723,13.285-11.454c1.053-0.536,2.172-0.895,3.341-1.133
		c2.42-0.491,4.394,0.275,6.023,2.043c1.039,1.127,1.7,2.486,2.214,3.914c0.851,2.359,1.304,4.81,1.558,7.294
		C81.469,346.561,81.651,349.115,81.644,351.679z"/>
	<path style="fill:#010B10;" d="M142.335,261.951c0-0.329-0.009-0.526,0.002-0.722c0.037-0.666,0.225-0.863,0.836-0.753
		c0.901,0.161,1.797,0.355,2.685,0.573c3.445,0.843,6.74,2.117,9.96,3.58c3.396,1.543,6.745,3.189,10.146,4.72
		c3.102,1.396,6.242,2.708,9.375,4.035c2.473,1.047,4.926,2.132,7.228,3.528c1.917,1.163,3.674,2.516,5.09,4.277
		c0.164,0.204,0.334,0.408,0.468,0.631c0.229,0.382,0.777,0.791,0.532,1.183c-0.327,0.519-0.922,0.103-1.392-0.003
		c-4.171-0.944-8.112-2.535-11.984-4.305c-7.737-3.538-15.41-7.214-23.056-10.947c-2.821-1.377-5.695-2.65-8.579-3.892
		C142.675,263.435,142.065,262.953,142.335,261.951z M184.437,280.081c-0.018,0.196,0.117,0.385,0.247,0.245
		c0.116-0.125-0.185-0.129-0.282-0.211c-1.197-1.044-2.675-1.606-4.057-2.322c-7.907-4.093-16.051-7.667-24.264-11.093
		c-3.259-1.359-6.516-2.725-9.785-4.058c-0.722-0.295-1.491-0.472-2.244-0.685c-0.108-0.03-0.301,0.002-0.357,0.077
		c-0.134,0.179-0.021,0.336,0.149,0.445c1.655,1.069,3.447,1.876,5.239,2.673c7.112,3.163,14.224,6.324,21.358,9.438
		c3.895,1.701,7.826,3.321,11.754,4.944C182.901,279.827,183.597,280.287,184.437,280.081z"/>
</g>
<path style="fill:#F7FCFE;" d="M490.799,358.17c-1.369,3.135-2.79,6.228-4.274,9.289v-9.373c0-0.522,0-1.045,0.031-1.567
	c0.021-0.376,0.282-0.554,0.637-0.616c0.063-0.01,0.136-0.01,0.199-0.01C491.112,355.944,490.862,355.318,490.799,358.17z"/>
<g>
	<path style="fill:#010B10;" d="M380.231,379.047c1.253,1.871,2.717,3.575,4.202,5.26c-0.176,0.854,0.001,1.7,0.079,2.543
		c1.367,14.7,2.258,29.426,2.6,44.187c0.026,1.112,0.158,2.224,0.292,3.328c0.135,1.111,0.207,2.219,0.166,3.336
		c-0.032,0.869-0.261,1.68-0.747,2.411c-0.376,0.566-0.869,0.904-1.052,0.707c-0.303-0.325-0.155-0.734-0.158-1.104
		c-0.036-4.067,0.031-8.136-0.107-12.198c-0.253-7.409-0.903-14.792-1.737-22.159c-0.914-8.081-2.03-16.135-3.232-24.177
		C380.431,380.47,380.332,379.759,380.231,379.047z"/>
	<path style="fill:#010B10;" d="M129.611,389.832c0,0.982,0.044,1.966-0.01,2.946c-0.078,1.419-0.744,1.998-2.129,1.974
		c-1.372-0.024-2.567-0.55-3.603-1.388c-0.812-0.657-1.545-1.416-2.274-2.167c-0.684-0.705-1.33-1.449-1.971-2.195
		c-1.685-1.968-3.863-2.864-6.404-2.964c-1.441-0.057-2.884-0.07-4.326-0.126c-1.179-0.047-2.356-0.128-3.534-0.199
		c-0.261-0.016-0.525-0.039-0.782-0.087c-2-0.369-2.417-1.221-1.389-3.009c0.488-0.847,1.065-1.657,1.688-2.412
		c2.94-3.561,6.332-6.636,10.143-9.246c1.083-0.742,2.209-1.411,3.427-1.91c2.32-0.95,3.98-0.559,5.619,1.344
		c0.908,1.053,1.551,2.267,2.104,3.535c1.108,2.538,1.786,5.203,2.317,7.909C129.004,384.478,129.328,387.145,129.611,389.832z
		 M128.125,390.815c-0.352-3.904-0.821-8.264-2.132-12.481c-0.525-1.69-1.188-3.33-2.101-4.856
		c-0.404-0.676-0.844-1.325-1.429-1.863c-0.775-0.713-1.627-0.992-2.702-0.719c-1.475,0.375-2.841,0.97-4.15,1.727
		c-4.155,2.405-7.473,5.711-10.29,9.556c-0.155,0.21-0.296,0.433-0.419,0.662c-0.328,0.607-0.152,1.04,0.48,1.178
		c0.255,0.055,0.517,0.088,0.777,0.111c1.304,0.118,2.608,0.235,3.913,0.344c2.282,0.19,4.564,0.364,6.834,0.708
		c1.592,0.241,2.819,0.97,3.742,2.263c0.647,0.906,1.299,1.808,1.956,2.706c0.917,1.255,2.123,2.096,3.593,2.61
		C128.335,393.51,128.125,393,128.125,390.815z"/>
</g>
<g>
	<path style="fill:#F7FCFE;" d="M440.334,371.682c0-4.518-0.001-9.036,0.001-13.554c0-0.523-0.001-1.048,0.022-1.57
		c0.017-0.372,0.231-0.623,0.608-0.632c0.98-0.024,1.962-0.037,2.942-0.015c0.465,0.01,0.681,0.322,0.684,0.779
		c0.004,0.459,0.011,0.916,0.011,1.375c0.001,9.101,0.001,18.203,0,27.304c0,0.459,0,0.917-0.019,1.375
		c-0.016,0.382-0.247,0.616-0.614,0.626c-0.98,0.025-1.962,0.029-2.942,0.011c-0.469-0.008-0.685-0.304-0.683-0.769
		c0.002-0.524-0.009-1.048-0.009-1.572C440.333,380.586,440.334,376.134,440.334,371.682z"/>
	<path style="fill:#F7FCFE;" d="M329.125,371.77c0,4.459,0,8.918-0.001,13.377c0,0.525,0.002,1.05-0.027,1.573
		c-0.02,0.365-0.238,0.592-0.607,0.652c-0.129,0.021-0.261,0.033-0.391,0.031c-3.769-0.055-3.205,0.559-3.215-2.994
		c-0.027-8.787-0.01-17.573-0.007-26.36c0.001-2.27-0.194-2.17,2.09-2.173c2.265-0.003,2.163-0.098,2.162,2.124
		C329.124,362.59,329.125,367.18,329.125,371.77z"/>
	<path style="fill:#F7FCFE;" d="M463.02,316.153c0-2.877-0.001-5.754,0.001-8.631c0-0.522,0.013-1.046,0.028-1.568
		c0.011-0.374,0.204-0.601,0.583-0.646c0.13-0.016,0.261-0.025,0.392-0.019c1.234,0.064,2.479-0.159,3.704,0.136
		c0.578,1.177,0.248,2.43,0.258,3.641c0.045,5.1,0.019,10.2,0.019,15.3c0,0.523,0.01,1.047-0.014,1.569
		c-0.03,0.661-0.187,0.868-0.795,0.857c-5.037-0.096-4.078,0.956-4.169-3.774C462.985,320.73,463.02,318.441,463.02,316.153z"/>
	<path style="fill:#F7FCFE;" d="M398.376,324.519c-0.137-0.053-0.321-0.117-0.499-0.194c-4.565-1.988-9.313-3.431-14.105-4.743
		c-0.252-0.069-0.511-0.117-0.758-0.201c-0.457-0.154-0.594-0.436-0.362-0.908c1.977-4.026,0.679-3.553,5.008-2.567
		c4.147,0.944,8.15,2.372,12.106,3.927c0.303,0.119,0.606,0.243,0.892,0.398c0.271,0.146,0.322,0.417,0.188,0.668
		c-0.585,1.094-1.188,2.18-1.79,3.265C398.922,324.405,398.721,324.555,398.376,324.519z"/>
	<path style="fill:#F7FCFE;" d="M325.01,320.441c-0.207,0.435-0.319,0.744-0.488,1.017c-0.619,0.994-0.997,2.131-1.807,3.008
		c-1.204-0.054-2.205-0.714-3.28-1.135c-3.844-1.505-7.795-2.663-11.766-3.767c-0.315-0.088-0.649-0.135-0.936-0.276
		c-0.132-0.066-0.285-0.366-0.237-0.473c0.504-1.132,1.034-2.253,1.587-3.361c0.132-0.263,0.457-0.245,0.705-0.191
		c1.215,0.261,2.434,0.51,3.635,0.824c3.992,1.043,7.88,2.403,11.722,3.898C324.384,320.077,324.601,320.223,325.01,320.441z"/>
	<path style="fill:#F7FCFE;" d="M386.402,308.909c0.487-1.17,1.13-2.221,1.741-3.287c0.141-0.246,0.393-0.339,0.673-0.308
		c0.26,0.028,0.522,0.061,0.775,0.123c4.967,1.227,9.829,2.778,14.55,4.757c0.29,0.121,0.63,0.207,0.852,0.677
		c-0.561,1.144-1.281,2.306-1.981,3.478c-0.19,0.319-0.468,0.436-0.828,0.299c-0.122-0.047-0.238-0.11-0.356-0.165
		c-4.285-2.005-8.784-3.413-13.299-4.78C387.848,309.499,387.137,309.377,386.402,308.909z"/>
	<path style="fill:#F7FCFE;" d="M328.897,310.815c-0.078,0.215-0.121,0.408-0.213,0.573c-0.48,0.856-0.958,1.713-1.462,2.555
		c-0.547,0.913-0.578,0.93-1.532,0.491c-3.992-1.837-8.152-3.203-12.352-4.462c-0.814-0.245-1.628-0.493-2.437-0.753
		c-0.372-0.119-0.537-0.398-0.345-0.751c0.559-1.028,0.986-2.134,1.746-3.047c1.15-0.266,2.178,0.271,3.233,0.541
		c3.868,0.993,7.649,2.265,11.361,3.736c0.546,0.216,1.086,0.457,1.612,0.717C328.662,310.489,328.764,310.672,328.897,310.815z"/>
</g>
<g>
	<path style="fill:#010B10;" d="M165.494,419.545c-0.479-9.192-1.093-18.357-1.072-27.541c0.004-1.704,0.079-3.408,0.149-5.112
		c0.037-0.882,0.134-0.943,1.08-0.952c0.196-0.002,0.393,0.005,0.589,0.017c0.311,0.019,0.46,0.203,0.471,0.501
		c0.005,0.13-0.014,0.262-0.034,0.391c-0.715,4.571-0.437,9.161-0.195,13.744c0.183,3.473,0.279,6.945,0.201,10.422
		c-0.056,2.498-0.377,4.967-0.837,7.419C165.776,418.813,165.613,419.175,165.494,419.545z"/>
	<path style="fill:#010B10;" d="M372.904,325.406c-0.225-0.948-0.254-1.91-0.231-2.879c0.041-1.737,0.071-3.474,0.106-5.211
		c1.081,2.592,1.793,5.304,2.524,8.004c1.502,5.545,2.737,11.148,3.411,16.862c0.206,1.743,0.47,3.488,0.323,5.255
		c-0.666,0.004-1.33,0.007-1.994,0.011c-0.147-1.888-0.292-3.776-0.442-5.664c-0.393-4.912-1.375-9.708-2.859-14.403
		C373.527,326.7,373.367,325.986,372.904,325.406z"/>
	<path style="fill:#010B10;" d="M160.993,438.024c0.063-1.753,0.352-3.484,1.544-4.917c0.346-0.416,0.402-0.766,0.119-1.226
		c-1.032-1.674-0.864-3.375-0.005-5.043c0.808-1.567,1.673-3.105,2.522-4.652c0.159-0.288,0.571-0.279,0.841-0.046
		c0.387,0.334,0.504,0.742,0.429,1.229c-0.091,0.597-0.359,1.12-0.689,1.61c-0.51,0.76-1.054,1.496-1.56,2.259
		c-0.286,0.434-0.582,0.878-0.77,1.357c-0.333,0.851,0.282,1.544,1.183,1.396c1.488-0.246,1.499-0.241,0.969,1.131
		c-0.353,0.914-0.747,1.812-1.12,2.718c-0.955,2.326-1.515,4.726-1.354,7.262c0.021,0.324,0.025,0.656-0.027,0.974
		c-0.036,0.215-0.28,0.285-0.445,0.172c-0.262-0.179-0.525-0.389-0.712-0.642C161.14,440.556,161.021,439.319,160.993,438.024z"/>
	<path style="fill:#010B10;" d="M380.592,363.542c-0.699,1.568-1.313,3.168-1.782,4.818c-0.58-2.567-0.806-5.183-1.072-7.788
		c-0.353-3.454-0.582-6.922-0.864-10.385c0.814-0.428,1.628-0.389,2.443-0.001c-0.179,1.364-0.051,2.729,0.06,4.085
		C379.632,357.379,379.961,360.481,380.592,363.542z"/>
</g>
<g>
	<path style="fill:#F7FCFE;" d="M458.48,307.177c-0.06,0.184-0.065,0.343-0.145,0.414c-0.143,0.125-0.324,0.224-0.505,0.287
		c-0.913,0.324-1.737,0.885-2.72,1.019c-0.843-0.618-0.92-1.666-1.394-2.491c-0.648-1.126-1.241-2.283-1.861-3.426
		c-0.36-0.665-0.329-0.857,0.4-1.181c3.161-1.404,2.325-1.846,4.165,1.247c0.664,1.115,1.195,2.308,1.781,3.469
		C458.316,306.742,458.401,306.987,458.48,307.177z"/>
	<path style="fill:#F7FCFE;" d="M412.709,312.706c-0.086,0.115-0.17,0.299-0.313,0.403c-0.209,0.151-0.455,0.258-0.694,0.359
		c-3.021,1.275-2.19,1.567-3.583-1.247c-0.666-1.345-1.394-2.658-2.091-3.988c-0.241-0.461-0.179-0.688,0.306-0.927
		c0.761-0.375,1.537-0.721,2.304-1.084c0.439-0.208,0.736-0.052,0.982,0.331c1.168,1.818,2.148,3.734,3.011,5.712
		C412.679,312.38,412.676,312.517,412.709,312.706z"/>
	<path style="fill:#F7FCFE;" d="M336.666,312.663c-0.053,0.116-0.075,0.278-0.165,0.337c-0.27,0.18-0.553,0.352-0.854,0.467
		c-0.785,0.301-1.554,1.076-2.328,0.85c-0.815-0.239-0.827-1.379-1.228-2.103c-0.728-1.314-1.412-2.655-2.111-3.986
		c-0.242-0.461-0.182-0.678,0.312-0.922c0.762-0.375,1.541-0.718,2.308-1.085c0.345-0.165,0.662-0.128,0.864,0.184
		c1.244,1.927,2.337,3.934,3.19,6.068C336.677,312.53,336.663,312.6,336.666,312.663z"/>
	<path style="fill:#F7FCFE;" d="M342.303,311.499c-0.115,0.143-0.206,0.325-0.354,0.422c-0.216,0.141-0.466,0.243-0.713,0.324
		c-0.798,0.26-1.576,1.023-2.356,0.768c-0.817-0.268-0.822-1.396-1.226-2.123c-0.697-1.259-1.353-2.54-2.024-3.814
		c-0.256-0.486-0.216-0.751,0.234-0.961c3.393-1.579,2.51-1.977,4.359,1.132c0.701,1.179,1.262,2.441,1.88,3.669
		C342.188,311.085,342.229,311.278,342.303,311.499z"/>
	<path style="fill:#F7FCFE;" d="M414.487,304.906c0.34,0.023,0.509,0.212,0.655,0.439c0.999,1.542,1.866,3.159,2.65,4.818
		c0.76,1.607,0.897,1.52-0.838,2.212c-0.707,0.282-1.36,0.787-2.196,0.65c-0.318-0.642-0.623-1.289-0.955-1.924
		c-0.699-1.333-1.412-2.659-2.118-3.989c-0.299-0.562-0.24-0.758,0.358-1.068c0.639-0.331,1.288-0.644,1.938-0.955
		C414.155,305.006,414.345,304.957,414.487,304.906z"/>
</g>
<g>
	<path style="fill:#010B10;" d="M146.203,115.938c-0.015,0.064-0.008,0.163-0.048,0.186c-1.604,0.944-3.218,0.839-4.793-0.041
		c-0.711-0.397-1.183-1.071-1.325-1.868c-0.328-1.841-0.231-3.655,0.714-5.326c0.932-1.649,2.41-2.321,4.297-1.994
		c1.231,0.213,2.209,0.836,2.738,1.991c0.73,1.595,0.956,3.275,0.38,4.957c-0.332,0.972-0.753,1.976-2.007,2.134
		c0.399-0.586,1.022-1.035,1.139-1.792c0.279-1.79,0.185-3.538-0.741-5.147c-0.802-1.394-2.051-1.745-3.529-1.077
		c-0.828,0.373-1.376,0.998-1.698,1.818c-0.461,1.173-0.679,2.4-0.553,3.658c0.199,1.985,1.482,3.018,3.499,2.83
		C144.923,116.204,145.561,116.049,146.203,115.938z"/>
	<path style="fill:#010B10;" d="M111.566,194.69c0.19,0.098,0.357,0.079,0.486-0.104c0.45-0.639,0.894-1.283,1.357-1.913
		c0.065-0.088,0.227-0.158,0.334-0.146c0.095,0.01,0.206,0.13,0.259,0.228c0.231,0.421,0.222,0.883,0.161,1.339
		c-0.112,0.848-0.1,1.682,0.078,2.529c0.139,0.658-0.071,0.929-0.734,1.15c-0.308,0.103-0.628,0.18-0.949,0.238
		c-1.618,0.298-1.949-0.071-1.406-1.573c0.155-0.428,0.344-0.846,0.539-1.258c0.102-0.216,0.017-0.356-0.114-0.503
		C111.579,194.676,111.566,194.69,111.566,194.69z"/>
	<path style="fill:#010B10;" d="M111.176,189.157c-0.336-0.029-0.415,0.232-0.512,0.463c-0.604,1.441-1.151,2.902-1.456,4.441
		c-0.063,0.319-0.118,0.643-0.222,0.949c-0.119,0.35-0.182,0.839-0.718,0.727c-0.441-0.092-0.325-0.519-0.283-0.808
		c0.167-1.158,0.309-2.325,0.582-3.46c0.471-1.959,1.183-3.844,2.038-5.863c0.455,0.653,0.245,1.302,0.362,1.867
		c0.116,0.562,0.117,1.148,0.169,1.724L111.176,189.157z"/>
	<path style="fill:#010B10;" d="M163.749,384.901c-0.512-0.159-0.639-0.523-0.676-0.927c-0.134-1.469,0.308-2.832,0.817-4.174
		c0.112-0.296,0.396-0.282,0.66-0.172c0.608,0.252,0.894,0.636,0.825,1.163c-0.033,0.256-0.099,0.515-0.199,0.752
		C164.71,382.668,164.226,383.787,163.749,384.901z"/>
	<path style="fill:#010B10;" d="M162.308,453.723c0.065-1.024,0.557-2.065,1.383-2.943c0.209-0.223,0.472-0.111,0.678,0.094
		c0.483,0.481,0.469,1.087,0.287,1.644c-0.22,0.675-0.53,1.331-0.888,1.945c-0.196,0.336-0.225,1.042-0.879,0.806
		c-0.463-0.167-0.554-0.682-0.582-1.154C162.305,454.05,162.308,453.985,162.308,453.723z"/>
	<path style="fill:#010B10;" d="M164.761,444.769c-0.077,1.086-0.262,2.295-1.633,2.87c-0.244,0.102-0.569-0.104-0.527-0.362
		c0.236-1.41,0.485-2.818,1.019-4.152c0.053-0.133,0.296-0.223,0.466-0.26c0.072-0.016,0.201,0.143,0.278,0.243
		C164.702,443.543,164.747,444.062,164.761,444.769z"/>
	<path style="fill:#010B10;" d="M116.839,199.024c-0.122,0.028-0.278,0.019-0.359,0.092c-0.141,0.127-0.23,0.31-0.352,0.462
		c-0.153,0.189-0.263,0.485-0.587,0.364c-0.335-0.125-0.489-0.408-0.503-0.758c-0.039-1.016,0.445-1.706,1.432-2.059
		c0.327-0.117,0.713,0.164,0.63,0.478c-0.097,0.371-0.249,0.727-0.351,1.097c-0.071,0.258,0.182,0.48,0.461,0.4
		c0.358-0.102,0.679-0.419,1.09-0.193c0.11,0.06,0.246,0.145,0.279,0.248c0.031,0.099-0.02,0.265-0.094,0.351
		c-0.368,0.421-0.755,0.441-1.137,0.059c-0.132-0.132-0.214-0.312-0.333-0.46C116.979,199.058,116.899,199.05,116.839,199.024z"/>
	<path style="fill:#010B10;" d="M111.135,189.197c0.315,0.008,0.678-0.029,0.734,0.402c0.132,1.027,0.101,2.05-0.178,3.055
		c-0.154,0.554-0.31,1.108-0.461,1.663c-0.078,0.288,0.21,0.259,0.334,0.371l0.015-0.014c-0.083-0.081-0.161-0.22-0.25-0.229
		c-0.108-0.01-0.237,0.075-0.338,0.147c-0.421,0.302-0.661,1.192-1.253,0.811c-0.413-0.266,0.132-0.934,0.292-1.398
		c0.548-1.581,1.204-3.129,1.145-4.851C111.176,189.157,111.135,189.197,111.135,189.197z"/>
	<path style="fill:#010B10;" d="M81.68,250.587c0.853,0.127,1.672,0.979,1.871,1.973c0.021,0.103-0.042,0.266-0.122,0.335
		c-0.076,0.065-0.25,0.093-0.342,0.051c-0.866-0.387-1.531-0.963-1.701-1.956C81.349,250.775,81.46,250.635,81.68,250.587z"/>
	<path style="fill:#010B10;" d="M141.008,202.211c-0.031-1.111,0.218-2.317,0.879-3.416c1.404-2.336,3.615-2.533,5.635-2.111
		c0.665,0.139,1.138,0.647,1.473,1.227c1.109,1.912,1.37,3.939,0.695,6.051c-0.282,0.883-0.862,1.449-1.883,1.405
		c-0.457-0.02-0.92,0.006-1.328,0.267c-0.238,0.153-0.399,0.373-0.316,0.643c0.051,0.164,0.225,0.364,0.381,0.408
		c0.307,0.086,0.645,0.055,0.963,0.109c0.324,0.054,0.83-0.442,0.946,0.204c0.074,0.416-0.341,0.688-0.667,0.888
		c-1.466,0.901-4.171,0.815-5.455-1.072C141.496,205.583,141.008,204.128,141.008,202.211z M147.105,202.343
		c0.016,0.239,0.005,0.372,0.036,0.494c0.085,0.339,0.276,0.588,0.66,0.558c0.391-0.03,0.554-0.304,0.533-0.66
		c-0.023-0.38-0.075-0.764-0.162-1.136c-0.059-0.25-0.214-0.512-0.511-0.47c-0.133,0.019-0.281,0.235-0.34,0.392
		C147.209,201.818,147.156,202.137,147.105,202.343z"/>
	<path style="fill:#010B10;" d="M142.113,111.896c0.053-0.577,0.102-1.221,0.566-1.738c0.32-0.356,0.699-0.575,1.19-0.496
		c0.515,0.082,0.726,0.456,0.878,0.912c0.215,0.651,0.117,1.276-0.095,1.893c-0.253,0.735-0.813,1.134-1.428,1.054
		C142.505,113.429,142.101,112.863,142.113,111.896z"/>
</g>
<g>
</g>
<g>
</g>
<g>
</g>
<g>
</g>
<g>
</g>
<g>
</g>
<g>
</g>
<g>
</g>
<g>
</g>
<g>
</g>
<g>
</g>
<g>
</g>
<g>
</g>
<g>
</g>
<g>
</g>
</svg>
